<svg width="14" height="14" viewBox="0 0 14 14" fill="none" xmlns="http://www.w3.org/2000/svg">
<path d="M13.993 10.2431C13.869 11.1444 13.4054 11.9722 12.6885 12.5725C11.9715 13.1728 11.05 13.5049 10.0952 13.5069C4.52881 13.5069 0 9.19519 0 3.8957C0.00210481 2.98669 0.350859 2.10933 0.981421 1.42674C1.61198 0.744159 2.48145 0.302801 3.42815 0.184728C3.66949 0.159253 3.91307 0.207627 4.12358 0.322837C4.33409 0.438047 4.50059 0.614103 4.59891 0.825472L6.00803 3.95577C6.08113 4.11826 6.11043 4.29555 6.09329 4.47155C6.07615 4.64755 6.01311 4.81669 5.90988 4.96361L4.74614 6.65891C5.27311 7.67709 6.14141 8.49907 7.21384 8.99496L8.97349 7.88033C9.12765 7.7814 9.30575 7.72151 9.49097 7.70633C9.6762 7.69115 9.86243 7.72117 10.0321 7.79356L13.32 9.12845C13.542 9.22206 13.727 9.38057 13.848 9.58099C13.969 9.78141 14.0198 10.0133 13.993 10.2431ZM8.79122 1.73987C9.6449 1.96192 10.423 2.39205 11.0488 2.98781C11.6746 3.58358 12.1264 4.32439 12.3596 5.13715C12.3905 5.25126 12.4603 5.35241 12.5579 5.42485C12.6555 5.49729 12.7756 5.53693 12.8994 5.53761C12.9492 5.53752 12.9988 5.53078 13.0466 5.51759C13.1179 5.49983 13.1848 5.4687 13.2433 5.42603C13.3018 5.38336 13.3507 5.33 13.3873 5.26909C13.4238 5.20817 13.4473 5.14092 13.4562 5.07127C13.4651 5.00163 13.4593 4.93099 13.4392 4.8635C13.1588 3.86813 12.6083 2.96052 11.8429 2.23182C11.0775 1.50312 10.1241 0.978966 9.07865 0.712007C9.00549 0.686633 8.92759 0.676039 8.84989 0.680901C8.7722 0.685762 8.69642 0.705971 8.62738 0.740243C8.55834 0.774514 8.49755 0.822096 8.44888 0.87996C8.40022 0.937823 8.36474 1.0047 8.34471 1.07633C8.32468 1.14797 8.32053 1.22279 8.33253 1.29603C8.34454 1.36927 8.37243 1.43933 8.41443 1.50175C8.45643 1.56416 8.51163 1.61757 8.5765 1.65857C8.64137 1.69956 8.71449 1.72725 8.79122 1.73987ZM8.20934 3.80226C8.68387 3.92593 9.11638 4.16515 9.46427 4.49636C9.81216 4.82757 10.0634 5.23934 10.1933 5.69112C10.2232 5.8058 10.2926 5.90761 10.3905 5.98023C10.4884 6.05285 10.609 6.09207 10.7331 6.09159C10.7807 6.09203 10.828 6.08527 10.8733 6.07157C10.9453 6.05454 11.0129 6.02394 11.0722 5.98158C11.1314 5.93922 11.1812 5.88597 11.2184 5.82497C11.2557 5.76398 11.2797 5.69648 11.2891 5.62648C11.2985 5.55649 11.293 5.48541 11.2729 5.41747C11.0959 4.78308 10.7459 4.2045 10.2584 3.74035C9.77083 3.27619 9.16312 2.94296 8.49677 2.7744C8.42362 2.74903 8.34571 2.73843 8.26802 2.7433C8.19032 2.74816 8.11454 2.76837 8.0455 2.80264C7.97646 2.83691 7.91568 2.88449 7.86701 2.94236C7.81834 3.00022 7.78286 3.0671 7.76283 3.13873C7.7428 3.21036 7.73865 3.28518 7.75066 3.35842C7.76266 3.43166 7.79055 3.50172 7.83256 3.56414C7.87456 3.62656 7.92975 3.67997 7.99462 3.72096C8.05949 3.76196 8.13262 3.78965 8.20934 3.80226Z" fill="white"/>
</svg>
