<svg width="181" height="58" viewBox="0 0 181 58" fill="none" xmlns="http://www.w3.org/2000/svg">
<path d="M0 3.01355C0 1.3567 1.34315 0.0135498 3 0.0135498H178C179.657 0.0135498 181 1.3567 181 3.01355V54.1368C181 55.7937 179.657 57.1368 178 57.1368H3C1.34314 57.1368 0 55.7937 0 54.1368V3.01355Z" fill="white"/>
<path d="M22.5 23.6808H25.8984C27.3724 23.6808 28.4844 23.8943 29.2344 24.3214C29.9844 24.7485 30.3594 25.4855 30.3594 26.5323C30.3594 26.9698 30.2812 27.3657 30.125 27.7198C29.974 28.0688 29.7526 28.3579 29.4609 28.587C29.1693 28.811 28.8099 28.962 28.3828 29.0402V29.1183C28.8255 29.1964 29.2188 29.3344 29.5625 29.5323C29.9115 29.7303 30.1849 30.0141 30.3828 30.3839C30.5859 30.7537 30.6875 31.2329 30.6875 31.8214C30.6875 32.5193 30.5208 33.1131 30.1875 33.6027C29.8594 34.0922 29.388 34.4646 28.7734 34.7198C28.1641 34.9751 27.4401 35.1027 26.6016 35.1027H22.5V23.6808ZM24.375 28.3917H26.1719C27.0208 28.3917 27.6094 28.2537 27.9375 27.9777C28.2656 27.7016 28.4297 27.298 28.4297 26.7667C28.4297 26.2251 28.2344 25.8344 27.8438 25.5948C27.4583 25.3553 26.8438 25.2355 26 25.2355H24.375V28.3917ZM24.375 29.9073V33.5323H26.3516C27.2266 33.5323 27.8411 33.3631 28.1953 33.0245C28.5495 32.686 28.7266 32.2277 28.7266 31.6495C28.7266 31.2954 28.6458 30.9881 28.4844 30.7277C28.3281 30.4672 28.0703 30.2667 27.7109 30.1261C27.3516 29.9803 26.8672 29.9073 26.2578 29.9073H24.375ZM40.5156 30.7589C40.5156 31.4777 40.4219 32.1157 40.2344 32.673C40.0469 33.2303 39.7734 33.7016 39.4141 34.087C39.0547 34.4672 38.6224 34.7589 38.1172 34.962C37.612 35.16 37.0417 35.2589 36.4062 35.2589C35.8125 35.2589 35.2682 35.16 34.7734 34.962C34.2786 34.7589 33.849 34.4672 33.4844 34.087C33.125 33.7016 32.8464 33.2303 32.6484 32.673C32.4505 32.1157 32.3516 31.4777 32.3516 30.7589C32.3516 29.8058 32.5156 28.9985 32.8438 28.337C33.1771 27.6704 33.651 27.1626 34.2656 26.8136C34.8802 26.4646 35.612 26.2902 36.4609 26.2902C37.2578 26.2902 37.9609 26.4646 38.5703 26.8136C39.1797 27.1626 39.6562 27.6704 40 28.337C40.3438 29.0037 40.5156 29.811 40.5156 30.7589ZM34.2422 30.7589C34.2422 31.3891 34.3177 31.9282 34.4688 32.3761C34.625 32.824 34.8646 33.1678 35.1875 33.4073C35.5104 33.6417 35.9271 33.7589 36.4375 33.7589C36.9479 33.7589 37.3646 33.6417 37.6875 33.4073C38.0104 33.1678 38.2474 32.824 38.3984 32.3761C38.5495 31.9282 38.625 31.3891 38.625 30.7589C38.625 30.1287 38.5495 29.5948 38.3984 29.1573C38.2474 28.7146 38.0104 28.3787 37.6875 28.1495C37.3646 27.9152 36.9453 27.798 36.4297 27.798C35.6693 27.798 35.1146 28.0532 34.7656 28.5636C34.4167 29.074 34.2422 29.8058 34.2422 30.7589ZM50.2812 30.7589C50.2812 31.4777 50.1875 32.1157 50 32.673C49.8125 33.2303 49.5391 33.7016 49.1797 34.087C48.8203 34.4672 48.388 34.7589 47.8828 34.962C47.3776 35.16 46.8073 35.2589 46.1719 35.2589C45.5781 35.2589 45.0339 35.16 44.5391 34.962C44.0443 34.7589 43.6146 34.4672 43.25 34.087C42.8906 33.7016 42.612 33.2303 42.4141 32.673C42.2161 32.1157 42.1172 31.4777 42.1172 30.7589C42.1172 29.8058 42.2812 28.9985 42.6094 28.337C42.9427 27.6704 43.4167 27.1626 44.0312 26.8136C44.6458 26.4646 45.3776 26.2902 46.2266 26.2902C47.0234 26.2902 47.7266 26.4646 48.3359 26.8136C48.9453 27.1626 49.4219 27.6704 49.7656 28.337C50.1094 29.0037 50.2812 29.811 50.2812 30.7589ZM44.0078 30.7589C44.0078 31.3891 44.0833 31.9282 44.2344 32.3761C44.3906 32.824 44.6302 33.1678 44.9531 33.4073C45.276 33.6417 45.6927 33.7589 46.2031 33.7589C46.7135 33.7589 47.1302 33.6417 47.4531 33.4073C47.776 33.1678 48.013 32.824 48.1641 32.3761C48.3151 31.9282 48.3906 31.3891 48.3906 30.7589C48.3906 30.1287 48.3151 29.5948 48.1641 29.1573C48.013 28.7146 47.776 28.3787 47.4531 28.1495C47.1302 27.9152 46.7109 27.798 46.1953 27.798C45.4349 27.798 44.8802 28.0532 44.5312 28.5636C44.1823 29.074 44.0078 29.8058 44.0078 30.7589ZM54.2266 22.9464V28.8214C54.2266 29.087 54.2161 29.3787 54.1953 29.6964C54.1745 30.0089 54.1536 30.3032 54.1328 30.5792H54.1719C54.3073 30.3969 54.4688 30.1834 54.6562 29.9386C54.849 29.6938 55.0312 29.4803 55.2031 29.298L57.8438 26.4542H59.9531L56.4922 30.173L60.1797 35.1027H58.0234L55.2578 31.3058L54.2266 32.1886V35.1027H52.3906V22.9464H54.2266ZM65.0078 26.2902C65.7786 26.2902 66.4401 26.449 66.9922 26.7667C67.5443 27.0844 67.9688 27.535 68.2656 28.1183C68.5625 28.7016 68.7109 29.3995 68.7109 30.212V31.1964H62.9375C62.9583 32.035 63.1823 32.6808 63.6094 33.1339C64.0417 33.587 64.6458 33.8136 65.4219 33.8136C65.974 33.8136 66.4688 33.7615 66.9062 33.6573C67.349 33.548 67.8047 33.3891 68.2734 33.1808V34.673C67.8411 34.8761 67.401 35.0245 66.9531 35.1183C66.5052 35.212 65.9688 35.2589 65.3438 35.2589C64.4948 35.2589 63.7474 35.0948 63.1016 34.7667C62.4609 34.4334 61.9583 33.9386 61.5938 33.2823C61.2344 32.6261 61.0547 31.811 61.0547 30.837C61.0547 29.8683 61.2188 29.0454 61.5469 28.3683C61.875 27.6912 62.3359 27.1756 62.9297 26.8214C63.5234 26.4672 64.2161 26.2902 65.0078 26.2902ZM65.0078 27.673C64.4297 27.673 63.9609 27.8605 63.6016 28.2355C63.2474 28.6105 63.0391 29.16 62.9766 29.8839H66.9141C66.9089 29.4516 66.8359 29.0688 66.6953 28.7355C66.5599 28.4021 66.3516 28.1417 66.0703 27.9542C65.7943 27.7667 65.4401 27.673 65.0078 27.673ZM73.6875 35.2589C72.6562 35.2589 71.8281 34.8839 71.2031 34.1339C70.5833 33.3787 70.2734 32.2667 70.2734 30.798C70.2734 29.3136 70.5885 28.1912 71.2188 27.4308C71.8542 26.6704 72.6901 26.2902 73.7266 26.2902C74.1641 26.2902 74.5469 26.3501 74.875 26.4698C75.2031 26.5844 75.4844 26.7407 75.7188 26.9386C75.9583 27.1365 76.1615 27.3579 76.3281 27.6027H76.4141C76.388 27.4412 76.3568 27.2094 76.3203 26.9073C76.2891 26.6001 76.2734 26.3162 76.2734 26.0558V22.9464H78.1172V35.1027H76.6797L76.3516 33.923H76.2734C76.1172 34.173 75.9193 34.3995 75.6797 34.6027C75.4453 34.8006 75.1641 34.9594 74.8359 35.0792C74.513 35.199 74.1302 35.2589 73.6875 35.2589ZM74.2031 33.7667C74.9896 33.7667 75.5443 33.5402 75.8672 33.087C76.1901 32.6339 76.3568 31.9542 76.3672 31.048V30.8058C76.3672 29.837 76.2109 29.0948 75.8984 28.5792C75.5859 28.0584 75.0156 27.798 74.1875 27.798C73.526 27.798 73.0208 28.0662 72.6719 28.6027C72.3281 29.1339 72.1562 29.8761 72.1562 30.8292C72.1562 31.7823 72.3281 32.5115 72.6719 33.0167C73.0208 33.5167 73.5312 33.7667 74.2031 33.7667ZM94.625 35.1027H92.3203L86.7266 25.9855H86.6562C86.6771 26.2928 86.6953 26.6183 86.7109 26.962C86.7318 27.3058 86.7474 27.66 86.7578 28.0245C86.7734 28.3891 86.7865 28.7589 86.7969 29.1339V35.1027H85.0938V23.6808H87.3828L92.9688 32.7355H93.0234C93.013 32.4698 93 32.1652 92.9844 31.8214C92.9688 31.4777 92.9531 31.1235 92.9375 30.7589C92.9271 30.3891 92.9193 30.0323 92.9141 29.6886V23.6808H94.625V35.1027ZM105.094 30.7589C105.094 31.4777 105 32.1157 104.812 32.673C104.625 33.2303 104.352 33.7016 103.992 34.087C103.633 34.4672 103.201 34.7589 102.695 34.962C102.19 35.16 101.62 35.2589 100.984 35.2589C100.391 35.2589 99.8464 35.16 99.3516 34.962C98.8568 34.7589 98.4271 34.4672 98.0625 34.087C97.7031 33.7016 97.4245 33.2303 97.2266 32.673C97.0286 32.1157 96.9297 31.4777 96.9297 30.7589C96.9297 29.8058 97.0938 28.9985 97.4219 28.337C97.7552 27.6704 98.2292 27.1626 98.8438 26.8136C99.4583 26.4646 100.19 26.2902 101.039 26.2902C101.836 26.2902 102.539 26.4646 103.148 26.8136C103.758 27.1626 104.234 27.6704 104.578 28.337C104.922 29.0037 105.094 29.811 105.094 30.7589ZM98.8203 30.7589C98.8203 31.3891 98.8958 31.9282 99.0469 32.3761C99.2031 32.824 99.4427 33.1678 99.7656 33.4073C100.089 33.6417 100.505 33.7589 101.016 33.7589C101.526 33.7589 101.943 33.6417 102.266 33.4073C102.589 33.1678 102.826 32.824 102.977 32.3761C103.128 31.9282 103.203 31.3891 103.203 30.7589C103.203 30.1287 103.128 29.5948 102.977 29.1573C102.826 28.7146 102.589 28.3787 102.266 28.1495C101.943 27.9152 101.523 27.798 101.008 27.798C100.247 27.798 99.6927 28.0532 99.3438 28.5636C98.9948 29.074 98.8203 29.8058 98.8203 30.7589ZM114.273 35.0948L113.18 31.0714C113.128 30.8735 113.065 30.6339 112.992 30.3527C112.919 30.0714 112.846 29.7823 112.773 29.4855C112.701 29.1834 112.633 28.9047 112.57 28.6495C112.513 28.3943 112.469 28.1964 112.438 28.0558H112.375C112.349 28.1964 112.307 28.3943 112.25 28.6495C112.193 28.9047 112.128 29.1834 112.055 29.4855C111.982 29.7876 111.909 30.0818 111.836 30.3683C111.768 30.6547 111.706 30.8995 111.648 31.1027L110.5 35.0948H108.484L106.062 26.4464H107.922L109.047 30.7433C109.12 31.035 109.19 31.3501 109.258 31.6886C109.331 32.0271 109.393 32.3501 109.445 32.6573C109.497 32.9646 109.536 33.2172 109.562 33.4152H109.625C109.646 33.2745 109.674 33.0975 109.711 32.8839C109.747 32.6652 109.789 32.4386 109.836 32.2042C109.883 31.9646 109.93 31.7407 109.977 31.5323C110.023 31.3188 110.068 31.1469 110.109 31.0167L111.438 26.4464H113.445L114.719 31.0167C114.776 31.2146 114.839 31.4646 114.906 31.7667C114.974 32.0636 115.034 32.3631 115.086 32.6652C115.143 32.962 115.18 33.2094 115.195 33.4073H115.258C115.279 33.2303 115.315 32.9907 115.367 32.6886C115.424 32.3813 115.49 32.0558 115.562 31.712C115.635 31.3631 115.711 31.0402 115.789 30.7433L116.938 26.4464H118.766L116.328 35.0948H114.273Z" fill="#222222"/>
<path d="M160.778 29.353C161.207 28.9234 161.207 28.227 160.778 27.7974L153.777 20.797C153.348 20.3674 152.651 20.3674 152.222 20.797C151.792 21.2266 151.792 21.9231 152.222 22.3527L158.444 28.5752L152.222 34.7977C151.792 35.2273 151.792 35.9238 152.222 36.3534C152.651 36.7829 153.348 36.7829 153.777 36.3534L160.778 29.353ZM130 29.6752H160V27.4752H130V29.6752Z" fill="black"/>
</svg>
