<svg width="196" height="58" viewBox="0 0 196 58" fill="none" xmlns="http://www.w3.org/2000/svg">
<rect y="0.0135498" width="196" height="57.1233" rx="3" fill="white"/>
<path d="M72.9826 17.1276C72.9826 18.0453 72.742 18.8482 72.1407 19.4217C71.419 20.1099 70.5771 20.454 69.4946 20.454C68.4121 20.454 67.5702 20.1099 66.8486 19.4217C66.1269 18.7335 65.7661 17.9306 65.7661 16.8982C65.7661 15.8659 66.1269 15.063 66.8486 14.3747C67.5702 13.6865 68.4121 13.3424 69.4946 13.3424C69.9757 13.3424 70.4568 13.4571 70.9379 13.6865C71.419 13.9159 71.7798 14.1453 72.0204 14.4894L71.419 15.063C70.9379 14.4894 70.3365 14.26 69.4946 14.26C68.773 14.26 68.0513 14.4894 67.5702 15.063C66.9689 15.5218 66.7283 16.21 66.7283 17.0129C66.7283 17.8159 66.9689 18.5041 67.5702 18.9629C68.1716 19.4217 68.773 19.7658 69.4946 19.7658C70.3365 19.7658 70.9379 19.5364 71.5393 18.9629C71.9001 18.6188 72.1407 18.16 72.1407 17.5864H69.4946V16.6688H72.9826V17.1276ZM78.5152 14.26H75.2678V16.4394H78.2746V17.2423H75.2678V19.4217H78.5152V20.3393H74.3056V13.4571H78.5152V14.26ZM82.4842 20.3393H81.522V14.26H79.4774V13.4571H84.5289V14.26H82.4842V20.3393ZM88.0169 20.3393V13.4571H88.9791V20.3393H88.0169ZM93.0684 20.3393H92.1062V14.26H90.0615V13.4571H94.9928V14.26H92.9481V20.3393H93.0684ZM104.494 19.4217C103.773 20.1099 102.931 20.454 101.848 20.454C100.766 20.454 99.924 20.1099 99.2024 19.4217C98.4807 18.7335 98.1199 17.9306 98.1199 16.8982C98.1199 15.8659 98.4807 15.063 99.2024 14.3747C99.924 13.6865 100.766 13.3424 101.848 13.3424C102.931 13.3424 103.773 13.6865 104.494 14.3747C105.216 15.063 105.577 15.8659 105.577 16.8982C105.577 17.9306 105.216 18.7335 104.494 19.4217ZM99.924 18.8482C100.405 19.307 101.127 19.6511 101.848 19.6511C102.57 19.6511 103.292 19.4217 103.773 18.8482C104.254 18.3894 104.615 17.7012 104.615 16.8982C104.615 16.0953 104.374 15.4071 103.773 14.9483C103.292 14.4894 102.57 14.1453 101.848 14.1453C101.127 14.1453 100.405 14.3747 99.924 14.9483C99.4429 15.4071 99.0821 16.0953 99.0821 16.8982C99.0821 17.7012 99.3227 18.3894 99.924 18.8482ZM106.9 20.3393V13.4571H107.982L111.47 18.8482V13.4571H112.433V20.3393H111.47L107.742 14.7189V20.3393H106.9Z" fill="black" stroke="white" stroke-width="0.2" stroke-miterlimit="10"/>
<path d="M97.8793 30.4339C94.9928 30.4339 92.7075 32.4986 92.7075 35.3662C92.7075 38.1191 94.9928 40.2985 97.8793 40.2985C100.766 40.2985 103.051 38.2338 103.051 35.3662C103.051 32.3839 100.766 30.4339 97.8793 30.4339ZM97.8793 38.2338C96.3158 38.2338 94.9928 36.972 94.9928 35.2515C94.9928 33.5309 96.3158 32.2692 97.8793 32.2692C99.4429 32.2692 100.766 33.4162 100.766 35.2515C100.766 36.972 99.4429 38.2338 97.8793 38.2338ZM86.6938 30.4339C83.8072 30.4339 81.522 32.4986 81.522 35.3662C81.522 38.1191 83.8072 40.2985 86.6938 40.2985C89.5804 40.2985 91.8656 38.2338 91.8656 35.3662C91.8656 32.3839 89.5804 30.4339 86.6938 30.4339ZM86.6938 38.2338C85.1303 38.2338 83.8072 36.972 83.8072 35.2515C83.8072 33.5309 85.1303 32.2692 86.6938 32.2692C88.2574 32.2692 89.5804 33.4162 89.5804 35.2515C89.5804 36.972 88.2574 38.2338 86.6938 38.2338ZM73.3434 31.9251V33.9897H78.5152C78.3949 35.1368 77.9138 36.0544 77.3124 36.6279C76.5908 37.3162 75.388 38.1191 73.3434 38.1191C70.096 38.1191 67.6905 35.7103 67.6905 32.6133C67.6905 29.5163 70.2162 27.1075 73.3434 27.1075C75.0272 27.1075 76.3502 27.7957 77.3124 28.5987L78.876 27.1075C77.553 25.9605 75.8691 25.0428 73.4637 25.0428C69.1338 25.0428 65.4053 28.484 65.4053 32.6133C65.4053 36.7426 69.1338 40.1837 73.4637 40.1837C75.8691 40.1837 77.553 39.4955 78.9963 38.0044C80.4396 36.6279 80.9207 34.678 80.9207 33.1868C80.9207 32.728 80.9207 32.2692 80.8004 31.9251H73.3434ZM127.948 33.5309C127.467 32.3839 126.264 30.4339 123.618 30.4339C120.972 30.4339 118.807 32.3839 118.807 35.3662C118.807 38.1191 120.972 40.2985 123.859 40.2985C126.144 40.2985 127.587 38.922 128.068 38.1191L126.384 36.972C125.783 37.775 125.061 38.3485 123.859 38.3485C122.656 38.3485 121.934 37.8897 121.333 36.8573L128.188 34.1044L127.948 33.5309ZM120.972 35.1368C120.972 33.3015 122.536 32.2692 123.618 32.2692C124.46 32.2692 125.302 32.728 125.542 33.3015L120.972 35.1368ZM115.319 39.8396H117.604V25.5017H115.319V39.8396ZM111.711 31.4663C111.11 30.8927 110.147 30.3192 108.945 30.3192C106.419 30.3192 104.013 32.4986 104.013 35.2515C104.013 38.0044 106.299 40.069 108.945 40.069C110.147 40.069 111.11 39.4955 111.591 38.922H111.711V39.6102C111.711 41.4455 110.628 42.4778 108.945 42.4778C107.622 42.4778 106.659 41.5602 106.419 40.7573L104.494 41.5602C105.096 42.8219 106.539 44.4278 109.065 44.4278C111.711 44.4278 113.876 42.9366 113.876 39.3808V30.6633H111.711V31.4663ZM109.065 38.2338C107.501 38.2338 106.178 36.972 106.178 35.2515C106.178 33.5309 107.501 32.2692 109.065 32.2692C110.628 32.2692 111.831 33.5309 111.831 35.2515C111.831 36.972 110.628 38.2338 109.065 38.2338ZM138.412 25.5017H132.999V39.8396H135.285V34.4486H138.412C140.938 34.4486 143.343 32.728 143.343 29.9751C143.343 27.2222 140.938 25.5017 138.412 25.5017ZM138.532 32.3839H135.285V27.4516H138.532C140.216 27.4516 141.178 28.8281 141.178 29.8604C141.058 31.1221 140.096 32.3839 138.532 32.3839ZM152.364 30.3192C150.68 30.3192 148.996 31.0074 148.395 32.4986L150.439 33.3015C150.92 32.4986 151.642 32.2692 152.484 32.2692C153.687 32.2692 154.769 32.9574 154.889 34.1044V34.2192C154.529 33.9897 153.566 33.6456 152.604 33.6456C150.439 33.6456 148.274 34.7927 148.274 36.8573C148.274 38.8073 150.078 40.069 152.003 40.069C153.566 40.069 154.288 39.3808 154.889 38.6926H155.01V39.8396H157.175V34.3339C156.934 31.8104 154.889 30.3192 152.364 30.3192ZM152.123 38.2338C151.401 38.2338 150.319 37.8897 150.319 36.972C150.319 35.825 151.642 35.4809 152.724 35.4809C153.687 35.4809 154.168 35.7103 154.769 35.9397C154.529 37.3162 153.326 38.2338 152.123 38.2338ZM164.752 30.6633L162.226 36.8573H162.106L159.46 30.6633H157.054L161.023 39.3808L158.738 44.1984H161.023L167.157 30.6633H164.752ZM144.546 39.8396H146.831V25.5017H144.546V39.8396Z" fill="black"/>
<path d="M28.4811 14.0308C28.1203 14.3749 28 14.9484 28 15.6366V40.9862C28 41.6744 28.2405 42.2479 28.6014 42.592L28.7216 42.7067L43.6357 28.4834V28.254L28.4811 14.0308Z" fill="url(#paint0_linear_612_1031)"/>
<path d="M48.4461 33.3005L43.5149 28.5976V28.2535L48.4461 23.5507L48.5664 23.6654L54.4599 26.8771C56.1437 27.7947 56.1437 29.2858 54.4599 30.2035L48.4461 33.3005Z" fill="url(#paint1_linear_612_1031)"/>
<path d="M48.5675 33.1863L43.516 28.3688L28.4817 42.7068C29.0831 43.2803 29.925 43.2803 31.0075 42.8215L48.5675 33.1863Z" fill="url(#paint2_linear_612_1031)"/>
<path d="M48.5675 23.552L31.0075 14.0316C29.925 13.4581 29.0831 13.5728 28.4817 14.1463L43.516 28.3696L48.5675 23.552Z" fill="url(#paint3_linear_612_1031)"/>
<path opacity="0.2" d="M48.4472 33.072L31.0075 42.4777C30.0453 43.0513 29.2033 42.9366 28.602 42.4777L28.4817 42.5924L28.602 42.7071C29.2033 43.166 30.0453 43.2807 31.0075 42.7071L48.4472 33.072Z" fill="black"/>
<path opacity="0.12" d="M28.4811 42.4773C28.1203 42.1332 28 41.5597 28 40.8715V40.9862C28 41.6744 28.2405 42.2479 28.6014 42.5921V42.4773H28.4811ZM54.4603 29.8599L48.4466 33.0716L48.5669 33.1863L54.4603 29.9746C55.3023 29.5158 55.6631 28.9423 55.6631 28.3688C55.6631 28.9423 55.182 29.4011 54.4603 29.8599Z" fill="black"/>
<path opacity="0.25" d="M31.0069 14.1455L54.4603 26.8776C55.182 27.3364 55.6631 27.7952 55.6631 28.3688C55.6631 27.7952 55.3023 27.2217 54.4603 26.7629L31.0069 14.0308C29.323 13.1132 28 13.8014 28 15.6366V15.7513C28 14.0308 29.323 13.2279 31.0069 14.1455Z" fill="white"/>
<defs>
<linearGradient id="paint0_linear_612_1031" x1="42.1924" y1="15.4187" x2="22.9632" y2="35.5805" gradientUnits="userSpaceOnUse">
<stop stop-color="#00A0FF"/>
<stop offset="0.007" stop-color="#00A1FF"/>
<stop offset="0.26" stop-color="#00BEFF"/>
<stop offset="0.512" stop-color="#00D2FF"/>
<stop offset="0.76" stop-color="#00DFFF"/>
<stop offset="1" stop-color="#00E3FF"/>
</linearGradient>
<linearGradient id="paint1_linear_612_1031" x1="56.6657" y1="28.3694" x2="27.5629" y2="28.3694" gradientUnits="userSpaceOnUse">
<stop stop-color="#FFE000"/>
<stop offset="0.409" stop-color="#FFBD00"/>
<stop offset="0.775" stop-color="#FFA500"/>
<stop offset="1" stop-color="#FF9C00"/>
</linearGradient>
<linearGradient id="paint2_linear_612_1031" x1="45.8337" y1="31.0024" x2="19.7587" y2="58.3437" gradientUnits="userSpaceOnUse">
<stop stop-color="#FF3A44"/>
<stop offset="1" stop-color="#C31162"/>
</linearGradient>
<linearGradient id="paint3_linear_612_1031" x1="24.7496" y1="5.63069" x2="36.3938" y2="17.8404" gradientUnits="userSpaceOnUse">
<stop stop-color="#32A071"/>
<stop offset="0.069" stop-color="#2DA771"/>
<stop offset="0.476" stop-color="#15CF74"/>
<stop offset="0.801" stop-color="#06E775"/>
<stop offset="1" stop-color="#00F076"/>
</linearGradient>
</defs>
</svg>
