<svg width="1920" height="233" viewBox="0 0 1920 233" fill="none" xmlns="http://www.w3.org/2000/svg">
<path fill-rule="evenodd" clip-rule="evenodd" d="M0 56.0014C0 56.0014 98 75.6677 131 85.6676C164 95.6675 320 130.334 480 175.667C640 220.333 800 207.667 960 156.334C1120 105.001 1280 15.6685 1440 2.33528C1600 -10.3313 1760 53.6681 1840 85.6678L1920 117.668V233H1840C1760 233 1600 233 1440 233C1280 233 1120 233 960 233C800 233 640 233 480 233C320 233 160 233 80 233H0V56.0014Z" fill="#3F98DC"/>
</svg>
