<svg width="1920" height="233" viewBox="0 0 1920 233" fill="none" xmlns="http://www.w3.org/2000/svg">
<path fill-rule="evenodd" clip-rule="evenodd" d="M1920 56.0014C1920 56.0014 1822 75.6677 1789 85.6676C1756 95.6675 1600 130.334 1440 175.667C1280 220.333 1120 207.667 960 156.334C800 105.001 640 15.6685 480 2.33528C320 -10.3313 160 53.6681 80 85.6678L0 117.668V233H80C160 233 320 233 480 233C640 233 800 233 960 233C1120 233 1280 233 1440 233C1600 233 1760 233 1840 233H1920V56.0014Z" fill="#44A6DE"/>
</svg>
