<svg width="16" height="16" viewBox="0 0 16 16" fill="none" xmlns="http://www.w3.org/2000/svg">
<path d="M8.53334 11.2001H9.60001M13.3333 9.06678V8.00011C13.3333 7.71722 13.221 7.44591 13.0209 7.24587C12.8209 7.04583 12.5496 6.93345 12.2667 6.93345H1.60001C1.31711 6.93345 1.0458 7.04583 0.84576 7.24587C0.645721 7.44591 0.53334 7.71722 0.53334 8.00011V14.4001C0.53334 14.683 0.645721 14.9543 0.84576 15.1544C1.0458 15.3544 1.31711 15.4668 1.60001 15.4668H12.2667C12.5496 15.4668 12.8209 15.3544 13.0209 15.1544C13.221 14.9543 13.3333 14.683 13.3333 14.4001V13.3334V9.06678ZM13.3333 9.06678H9.06667C8.50088 9.06678 7.95826 9.29154 7.55818 9.69162C7.1581 10.0917 6.93334 10.6343 6.93334 11.2001C6.93334 11.7659 7.1581 12.3085 7.55818 12.7086C7.95826 13.1087 8.50088 13.3334 9.06667 13.3334H13.3333V9.06678ZM13.3333 9.06678C13.8991 9.06678 14.4418 9.29154 14.8418 9.69162C15.2419 10.0917 15.4667 10.6343 15.4667 11.2001C15.4667 11.7659 15.2419 12.3085 14.8418 12.7086C14.4418 13.1087 13.8991 13.3334 13.3333 13.3334V9.06678ZM3.73334 6.93345V3.73345C3.73334 2.88475 4.07048 2.07082 4.6706 1.47071C5.27071 0.870589 6.08465 0.533447 6.93334 0.533447C7.78203 0.533447 8.59597 0.870589 9.19608 1.47071C9.7962 2.07082 10.1333 2.88475 10.1333 3.73345V6.93345H3.73334ZM12.8 11.2001H13.8667H12.8ZM10.6667 11.2001H11.7333H10.6667Z" stroke="#575757"/>
</svg>
