<svg width="28" height="29" viewBox="0 0 28 29" fill="none" xmlns="http://www.w3.org/2000/svg">
<path d="M24.2745 13.8359H24.2697C24.0189 13.8395 23.7796 13.9422 23.6038 14.1218C23.4281 14.3014 23.3301 14.5433 23.3311 14.7951C23.3311 15.3376 23.7313 15.7355 24.2734 15.7355C24.3977 15.7373 24.5211 15.7141 24.6364 15.6672C24.7516 15.6204 24.8564 15.5509 24.9444 15.4628C25.0325 15.3747 25.1021 15.2699 25.1492 15.1543C25.1962 15.0388 25.2197 14.915 25.2184 14.7903C25.2141 14.2724 24.7808 13.8359 24.2745 13.8359Z" fill="white"/>
<path d="M26.28 12.8249C25.7642 12.2897 25.0586 11.9806 24.3169 11.9648H24.2635C22.7561 11.9648 21.476 13.2549 21.468 14.7823C21.4668 15.5238 21.757 16.2358 22.2755 16.764C22.7941 17.2921 23.4992 17.5938 24.2379 17.6035H24.2582C24.5948 17.6043 24.9289 17.5459 25.2453 17.431C24.7742 19.4993 23.7604 21.432 22.3639 23.029C21.7843 23.6894 21.145 24.2944 20.4542 24.8364C19.3761 25.6903 18.1865 26.3919 16.9186 26.9218C15.6551 27.452 14.3145 27.7736 12.9487 27.874C12.6083 27.8975 12.2598 27.9109 11.9082 27.9109C10.8575 27.9109 9.7786 27.7915 8.79626 27.4718C8.30955 27.3163 7.84363 27.1015 7.40892 26.8324C6.97292 26.561 6.58097 26.2242 6.24675 25.8336C5.98701 25.5295 5.78597 25.1796 5.65393 24.8016C5.52456 24.43 5.45906 24.039 5.46023 23.6454C5.46228 22.8499 5.71395 22.0753 6.17952 21.4315C6.49594 20.9929 6.89293 20.6207 7.32194 20.2662C7.75095 19.9116 8.21091 19.5764 8.64899 19.2079C8.99829 18.9182 9.31903 18.5954 9.60679 18.244C9.81247 17.9885 9.99464 17.7148 10.1511 17.4262V18.9466C10.1512 19.3316 10.3036 19.7008 10.5749 19.9731C10.8462 20.2453 11.214 20.3983 11.5976 20.3984H13.0325C13.4161 20.3983 13.7839 20.2453 14.0552 19.9731C14.3264 19.7008 14.4789 19.3316 14.479 18.9466V18.063C14.4809 17.963 14.4432 17.8663 14.3741 17.7943C14.305 17.7222 14.2102 17.6806 14.1106 17.6787C14.011 17.6768 13.9146 17.7147 13.8428 17.784C13.771 17.8534 13.7296 17.9485 13.7277 18.0485V18.9466C13.7284 19.0398 13.7102 19.1322 13.6744 19.2181C13.6215 19.3429 13.5339 19.4496 13.422 19.5255C13.3074 19.6035 13.172 19.645 13.0335 19.6444H11.5987C11.5058 19.6451 11.4138 19.6269 11.3282 19.5909C11.202 19.5376 11.0942 19.4483 11.0183 19.334C10.9424 19.2198 10.9017 19.0856 10.9013 18.9482V16.5828C10.9013 16.4883 10.8639 16.3977 10.7974 16.3309C10.7308 16.2641 10.6406 16.2266 10.5464 16.2266H8.1917C8.07761 16.2268 7.96523 16.1988 7.86453 16.145C7.76382 16.0912 7.67789 16.0133 7.61435 15.9182C7.53657 15.8032 7.49528 15.6673 7.49589 15.5283V14.0888C7.49524 13.9954 7.51339 13.9029 7.54925 13.8167C7.6021 13.692 7.68975 13.5852 7.80164 13.5093C7.9164 13.4313 8.05199 13.3898 8.19063 13.3904H9.01023C9.10837 13.3916 9.20321 13.3549 9.27519 13.288C9.34717 13.221 9.3908 13.1289 9.39708 13.0306C9.39969 12.9797 9.39196 12.9289 9.37436 12.8812C9.35676 12.8334 9.32966 12.7898 9.29472 12.7529C9.25977 12.716 9.2177 12.6867 9.17109 12.6667C9.12447 12.6466 9.07428 12.6363 9.02357 12.6364H8.1917C7.8079 12.6364 7.43983 12.7894 7.16844 13.0618C6.89706 13.3342 6.74459 13.7036 6.74459 14.0888V15.5267C6.74452 15.7174 6.78191 15.9063 6.85461 16.0825C6.92732 16.2587 7.03392 16.4188 7.16832 16.5536C7.30271 16.6885 7.46227 16.7954 7.63787 16.8683C7.81347 16.9412 8.00167 16.9787 8.1917 16.9785H9.86932C9.70263 17.3269 9.4952 17.6541 9.25141 17.9532C8.98205 18.2827 8.68187 18.5856 8.35498 18.8577C7.93344 19.2122 7.47401 19.5469 7.03113 19.9132C6.58825 20.2796 6.16031 20.6769 5.8092 21.1626C5.28729 21.8847 5.00519 22.7534 5.00294 23.6454C5.00174 24.0909 5.07608 24.5333 5.22278 24.9537C5.37355 25.3851 5.60299 25.7847 5.89938 26.1319C6.26375 26.5577 6.69096 26.9251 7.16613 27.2212C7.86407 27.6592 8.64419 27.9452 9.45151 28.123C10.2586 28.2926 11.0815 28.375 11.906 28.3688C12.2689 28.3688 12.6275 28.3549 12.9775 28.3313C14.3923 28.2276 15.7811 27.8946 17.0899 27.3454C18.3961 26.7999 19.6219 26.0777 20.7333 25.199C21.4466 24.6395 22.107 24.0151 22.706 23.3337C24.231 21.5905 25.3163 19.4618 25.7667 17.1799C26.1225 16.9571 26.4239 16.657 26.6486 16.3016C26.8734 15.9462 27.0156 15.5446 27.0649 15.1266C27.1142 14.7086 27.0692 14.2849 26.9334 13.8866C26.7975 13.4884 26.5742 13.1259 26.28 12.826V12.8249ZM25.3158 15.8137C25.1796 15.9518 25.0173 16.0612 24.8385 16.1354C24.6596 16.2096 24.4678 16.2472 24.2742 16.2459C23.4487 16.2459 22.8244 15.622 22.8223 14.7957C22.8203 14.4085 22.9711 14.0363 23.2418 13.7604C23.5125 13.4845 23.881 13.3275 24.2667 13.3235H24.2742C24.4647 13.3242 24.6531 13.3629 24.8285 13.4374C25.0039 13.5119 25.1629 13.6206 25.296 13.7573C25.5694 14.029 25.7259 14.3973 25.732 14.7834C25.7346 14.9743 25.6991 15.1638 25.6276 15.3407C25.5561 15.5177 25.4501 15.6785 25.3158 15.8137Z" fill="white"/>
<path d="M17.7721 13.523C17.6612 13.2601 17.4755 13.0357 17.2382 12.878C17.001 12.7203 16.7227 12.6362 16.4382 12.6362H14.4799V10.6686C14.4799 10.4779 14.4426 10.289 14.3699 10.1128C14.2972 9.93662 14.1905 9.77652 14.0562 9.64168C13.9218 9.50685 13.7622 9.39992 13.5866 9.32701C13.411 9.25411 13.2228 9.21666 13.0328 9.2168H11.599C11.4089 9.21659 11.2207 9.25399 11.045 9.32686C10.8694 9.39973 10.7097 9.50665 10.5753 9.64149C10.4408 9.77634 10.3342 9.93646 10.2614 10.1127C10.1887 10.289 10.1513 10.4779 10.1514 10.6686V12.9714C10.1514 13.0709 10.1907 13.1662 10.2608 13.2365C10.3308 13.3068 10.4258 13.3463 10.5249 13.3463C10.54 13.3471 10.5551 13.3471 10.5702 13.3463H10.6028C10.7733 13.3541 10.943 13.3754 11.1102 13.41C11.3776 13.4619 11.6388 13.5421 11.8893 13.6494C12.1128 13.7453 12.3246 13.8666 12.5205 14.0109C12.9523 14.3309 13.277 14.775 13.4516 15.2844C13.5924 15.7029 13.6609 16.1425 13.6544 16.5841C13.6544 16.6319 13.6638 16.6791 13.682 16.7232C13.7002 16.7673 13.7269 16.8074 13.7606 16.8411C13.7942 16.8748 13.8342 16.9015 13.8781 16.9198C13.9221 16.938 13.9692 16.9473 14.0167 16.9472H14.0466C14.0937 16.9678 14.1446 16.9784 14.196 16.9783H16.4371C16.6275 16.979 16.8161 16.942 16.9922 16.8693C17.1683 16.7967 17.3284 16.6898 17.4632 16.5549C17.5981 16.42 17.7051 16.2597 17.778 16.0833C17.851 15.9068 17.8885 15.7175 17.8885 15.5265V14.0886C17.8877 13.8941 17.8482 13.7018 17.7721 13.523ZM17.135 15.5265C17.1355 15.6196 17.1174 15.712 17.0817 15.798C17.0287 15.9228 16.9411 16.0297 16.8293 16.1059C16.7144 16.1837 16.5789 16.2251 16.4403 16.2248H14.371C14.3526 15.9171 14.3029 15.612 14.2227 15.3144C14.1402 15.0069 14.0179 14.7116 13.8588 14.4361C13.6176 14.0233 13.2917 13.6668 12.9026 13.3902C12.6538 13.2127 12.3851 13.065 12.1022 12.95C11.772 12.8165 11.4278 12.7213 11.0761 12.6662C11.0137 12.6565 10.9566 12.649 10.9053 12.6431V10.6686C10.9046 10.5754 10.9228 10.4831 10.9587 10.3971C11.0117 10.2705 11.1007 10.1623 11.2146 10.0861C11.3285 10.01 11.4622 9.96911 11.599 9.96869H13.0328C13.1468 9.96858 13.259 9.99666 13.3596 10.0505C13.4603 10.1043 13.5461 10.1821 13.6096 10.2772C13.6873 10.3922 13.7286 10.5281 13.728 10.667V12.9762C13.728 12.988 13.728 12.9998 13.728 13.0116C13.728 13.0239 13.728 13.0357 13.728 13.0475C13.728 13.092 13.7368 13.136 13.7538 13.1771C13.7707 13.2182 13.7956 13.2556 13.827 13.287C13.8584 13.3184 13.8956 13.3433 13.9366 13.3603C13.9776 13.3773 14.0215 13.386 14.0658 13.3859H16.4398C16.5326 13.3852 16.6247 13.4034 16.7103 13.4395C16.8347 13.4925 16.9413 13.5805 17.0171 13.6928C17.0946 13.8081 17.1358 13.9441 17.1356 14.0832L17.135 15.5265Z" fill="white"/>
<path d="M0.528258 9.80029C1.15301 8.25585 2.0738 6.84954 3.23838 5.66114L3.30401 5.59473V1.5568C3.30401 1.35231 3.26387 1.14983 3.18589 0.960916C3.1079 0.772002 2.99359 0.600356 2.8495 0.455786C2.7054 0.311217 2.53434 0.196556 2.34609 0.118351C2.15783 0.0401462 1.95607 -7.02507e-05 1.75232 9.21833e-08H1.55116C1.34744 -7.02784e-05 1.1457 0.0401494 0.957472 0.118361C0.769245 0.196573 0.598219 0.311243 0.454167 0.455819C0.310115 0.600395 0.19586 0.772044 0.117932 0.960955C0.0400043 1.14987 -7.00236e-05 1.35234 9.18482e-08 1.5568V11.4015C0.140484 10.8566 0.31696 10.3217 0.528258 9.80029Z" fill="white"/>
<path d="M21.2504 15.9043C20.9355 18.0482 19.8652 20.0078 18.2337 21.4275C16.6023 22.8471 14.5178 23.6327 12.3586 23.6417C12.3479 23.6423 12.3372 23.6423 12.3265 23.6417C11.8949 23.6495 11.4835 23.8271 11.181 24.1362C10.8785 24.4453 10.709 24.8613 10.709 25.2946C10.709 25.7279 10.8785 26.1439 11.181 26.453C11.4835 26.7622 11.8949 26.9398 12.3265 26.9476C17.941 26.9476 22.6783 23.1742 24.16 18.0181C23.521 17.9947 22.9032 17.7812 22.3852 17.4049C21.8671 17.0286 21.4722 16.5063 21.2504 15.9043Z" fill="white"/>
<path d="M21.2864 13.5637C21.5274 12.9692 21.9391 12.4601 22.469 12.1009C22.999 11.7417 23.6233 11.5487 24.2628 11.5463C22.9288 6.25684 18.2033 2.32441 12.5435 2.22266C12.4693 2.22266 12.3935 2.22266 12.3194 2.22266C5.4408 2.22266 -0.133112 7.90361 0.0024204 14.8345C0.0024204 14.8457 0.0024204 14.857 0.0024204 14.8688V18.4258C-0.00151825 18.6454 0.0381841 18.8637 0.119209 19.0677C0.200233 19.2718 0.320956 19.4576 0.474328 19.6143C0.6277 19.7711 0.810647 19.8956 1.01249 19.9805C1.21433 20.0655 1.43101 20.1093 1.64989 20.1093C1.86877 20.1093 2.08545 20.0655 2.28729 19.9805C2.48913 19.8956 2.67208 19.7711 2.82545 19.6143C2.97882 19.4576 3.09955 19.2718 3.18057 19.0677C3.2616 18.8637 3.3013 18.6454 3.29736 18.4258V15.1928C3.30276 15.1394 3.30544 15.0858 3.30536 15.0321C3.30536 15.0209 3.30536 15.0128 3.30536 15.0037C3.29896 14.865 3.29523 14.7263 3.29523 14.5865C3.29502 13.3971 3.52828 12.2192 3.9817 11.1202C4.43511 10.0212 5.0998 9.0226 5.9378 8.18146C6.77579 7.34031 7.77068 6.67309 8.86564 6.21789C9.9606 5.76269 11.1342 5.52844 12.3194 5.52851C12.9573 5.52914 13.5935 5.59427 14.2184 5.72291C15.9253 6.07422 17.4918 6.92061 18.7239 8.15713C19.9559 9.39365 20.7992 10.9659 21.1493 12.679C21.2097 12.9757 21.2554 13.2706 21.2864 13.5637Z" fill="white"/>
</svg>
