<svg width="379" height="725" viewBox="0 0 379 725" fill="none" xmlns="http://www.w3.org/2000/svg">
<g clip-path="url(#clip0_156_1057)">
<path d="M125.35 107.637H81.4427V156.734H125.35V107.637Z" fill="#CCCCCC"/>
<path d="M211.666 230.579H189.313L186.918 211.419H214.061L211.666 230.579Z" fill="#53ABDD"/>
<path d="M103.975 216.701L103.221 227.013C103.187 227.48 103.253 227.948 103.415 228.388C103.577 228.827 103.831 229.226 104.159 229.559C104.488 229.892 104.885 230.151 105.322 230.318C105.759 230.486 106.227 230.558 106.694 230.529L111.991 230.209C112.236 230.194 112.475 230.125 112.691 230.007C112.907 229.889 113.094 229.725 113.24 229.527C113.385 229.329 113.485 229.101 113.532 228.86C113.58 228.618 113.573 228.37 113.514 228.131L110.573 216.371L103.975 216.701Z" fill="#E6E6E6"/>
<path d="M148.281 222.799C154.514 224.257 158.968 226.33 161.893 229.135C162.935 230.127 164.298 230.711 165.734 230.782C167.569 230.878 169.069 230.673 170.197 230.169H170.197C170.486 230.042 170.735 229.84 170.92 229.583C171.104 229.327 171.216 229.026 171.245 228.712C171.279 228.393 171.227 228.07 171.094 227.778C170.962 227.485 170.754 227.233 170.491 227.049L155.706 216.529L149.426 219.041L147.961 220.506C147.803 220.665 147.683 220.858 147.612 221.071C147.54 221.284 147.519 221.51 147.55 221.732C147.581 221.954 147.663 222.166 147.79 222.351C147.917 222.536 148.085 222.69 148.281 222.799H148.281Z" fill="#E6E6E6"/>
<path d="M129.096 54.4269L86.8354 54.0356C86.9417 47.8803 88.3738 41.8359 91.5043 36.4271C93.5603 32.8748 93.5159 29.0088 93.0204 25.7518C92.2558 20.7256 94.0338 15.583 97.9848 12.3834C101.004 9.93406 104.815 8.67321 108.699 8.83837L109.52 8.87255C112.193 8.98364 114.795 9.76445 117.088 11.1433C119.38 12.5221 121.29 14.4548 122.641 16.7639C124.014 19.2289 124.567 22.0667 124.222 24.8672C123.954 27.5021 124.595 30.1639 126.094 32.8511C128.681 38.7517 129.241 46.3023 129.096 54.4269Z" fill="#2F2E41"/>
<path d="M157.37 217.078L149.076 219.241L108.688 131.252L111.212 217.078H102.918C94.0552 176.699 78.0541 130.098 85.248 115.385L128.161 112.861L157.37 217.078Z" fill="#3E6ED6"/>
<path d="M108.327 39.6566C114.501 39.6566 119.506 34.6516 119.506 28.4777C119.506 22.3037 114.501 17.2987 108.327 17.2987C102.153 17.2987 97.1482 22.3037 97.1482 28.4777C97.1482 34.6516 102.153 39.6566 108.327 39.6566Z" fill="#FFB9B9"/>
<path d="M118.064 49.0325L99.6725 47.9507C101.475 43.8139 102.195 39.8303 101.476 36.0505H115.179C115.148 38.9527 116.592 43.9728 118.064 49.0325Z" fill="#FFB9B9"/>
<path d="M129.603 116.106L89.215 118.991L93.3618 47.4099L100.394 45.4264L108.327 47.2294L116.26 43.2626L121.309 45.066L129.603 116.106Z" fill="#3E6ED6"/>
<path d="M96.0664 167.674L68.4796 161.363C76.6826 134.161 91.4607 71.9306 86.6905 49.7537L101.115 43.2627L96.0664 167.674Z" fill="#E6E6E6"/>
<path d="M82.7237 89.0604L72.266 82.5694L81.1846 56.4486C82.1793 53.7532 84.0846 51.4901 86.571 50.0507L89.5753 48.3113L87.7723 74.6359L82.7237 89.0604Z" fill="#E6E6E6"/>
<path d="M153.584 161.724C144.877 166.761 123.112 169.569 113.556 166.051C112.853 141.474 111.474 71.9533 115.9 42.5415L131.767 49.0325L130.325 68.5055C122.739 85.1637 144.766 143.184 153.584 161.724Z" fill="#E6E6E6"/>
<path d="M152.322 85.815L142.585 82.5694L129.603 67.7841L131.767 49.0323L153.404 79.3239L152.322 85.815Z" fill="#E6E6E6"/>
<path d="M121.808 99.851C121.967 100.55 122.397 101.158 123.004 101.54C123.61 101.923 124.343 102.049 125.043 101.892L133.308 100.02L132.114 94.7444L123.848 96.6158C123.149 96.7743 122.541 97.2042 122.158 97.8109C121.775 98.4176 121.649 99.1514 121.808 99.851V99.851Z" fill="#FFB9B9"/>
<path d="M118.064 25.5927C111.854 23.0395 105.722 22.8547 99.6725 25.2321L97.1482 16.2168H120.227L118.064 25.5927Z" fill="#2F2E41"/>
<path d="M129.243 93.7483L133.931 102.403C141.816 100.204 148.649 93.2707 155.207 85.0936L153.404 79.3239L142.225 82.2087L129.243 93.7483Z" fill="#E6E6E6"/>
<path d="M125.817 75.8981H124.374C124.374 55.4968 120.174 41.2794 116.08 41.2794L115.72 39.8369C119.391 39.8369 121.731 45.7541 123.048 50.7181C124.834 57.4477 125.817 66.3901 125.817 75.8981Z" fill="#3F3D56"/>
<path d="M92.6406 70.8495H91.1981C91.1981 52.1651 95.4277 40.5581 101.656 40.5581L101.295 42.0005C96.9873 42.0005 92.6406 50.9209 92.6406 70.8495Z" fill="#3F3D56"/>
<path d="M125.096 79.8648C127.087 79.8648 128.702 78.2503 128.702 76.2587C128.702 74.2671 127.087 72.6526 125.096 72.6526C123.104 72.6526 121.49 74.2671 121.49 76.2587C121.49 78.2503 123.104 79.8648 125.096 79.8648Z" fill="#3F3D56"/>
<path d="M86.8708 79.5042H85.4283C85.4283 74.3343 88.3402 70.1283 91.9194 70.1283V71.5707C89.1355 71.5707 86.8708 75.1297 86.8708 79.5042Z" fill="#3F3D56"/>
<path d="M98.4103 79.5042H96.9679C96.9679 75.1297 94.7031 71.5708 91.9193 71.5708V70.1283C95.4985 70.1283 98.4103 74.3343 98.4103 79.5042Z" fill="#3F3D56"/>
<path d="M97.6892 81.3073C98.4858 81.3073 99.1316 80.6614 99.1316 79.8648C99.1316 79.0682 98.4858 78.4224 97.6892 78.4224C96.8925 78.4224 96.2467 79.0682 96.2467 79.8648C96.2467 80.6614 96.8925 81.3073 97.6892 81.3073Z" fill="#3F3D56"/>
<path d="M86.1495 81.3073C86.9461 81.3073 87.5919 80.6614 87.5919 79.8648C87.5919 79.0682 86.9461 78.4224 86.1495 78.4224C85.3528 78.4224 84.707 79.0682 84.707 79.8648C84.707 80.6614 85.3528 81.3073 86.1495 81.3073Z" fill="#3F3D56"/>
<path d="M68.1189 66.6007L77.1188 68.2077L97.6891 97.4566L86.7609 94.8852L68.1189 66.6007Z" fill="#6C63FF"/>
<path d="M66.5226 66.2426C66.3855 66.2446 66.2514 66.2835 66.1344 66.3551C66.0175 66.4267 65.9219 66.5285 65.8577 66.6497C65.7935 66.7709 65.763 66.9071 65.7695 67.0441C65.776 67.1811 65.8192 67.3139 65.8945 67.4285L85.1226 96.6023C85.2299 96.7654 85.3957 96.8811 85.5857 96.9257L94.532 99.0306C94.6828 99.0661 94.8409 99.0549 94.9852 98.9985C95.1296 98.9421 95.2533 98.8431 95.3401 98.7148C95.4269 98.5864 95.4726 98.4347 95.4712 98.2797C95.4698 98.1248 95.4213 97.9739 95.3321 97.8471L74.2208 67.8296C74.1636 67.7478 74.0908 67.6781 74.0066 67.6245C73.9224 67.5708 73.8284 67.5343 73.7301 67.517L66.6668 66.2556C66.6192 66.247 66.571 66.2427 66.5226 66.2426V66.2426Z" fill="#3F3D56"/>
<path d="M78.5172 87.1015L79.0516 92.4843L87.4844 91.6472C88.1982 91.5764 88.8547 91.2249 89.3093 90.6701C89.7639 90.1152 89.9795 89.4025 89.9087 88.6887C89.8379 87.9749 89.4864 87.3185 88.9315 86.8639C88.3767 86.4092 87.664 86.1936 86.9502 86.2645L78.5172 87.1015Z" fill="#FFB9B9"/>
<path d="M71.1843 86.4781C71.1966 88.3135 71.9337 90.0697 73.2352 91.3639C74.5366 92.6582 76.2968 93.3857 78.1323 93.3878H79.5189L80.5284 84.9752L72.17 81.9662L71.1843 86.4781Z" fill="#E6E6E6"/>
<path d="M362.053 0.662109H197.598V87.28H362.053V0.662109Z" fill="#E6E6E6"/>
<path d="M202.388 82.49H357.263V5.45203H202.388V82.49Z" fill="white"/>
<path d="M269.447 16.6285H214.363V71.7127H269.447V16.6285Z" fill="#3F3D56"/>
<path d="M256.275 41.7757C257.157 41.7757 257.872 41.0608 257.872 40.179C257.872 39.2972 257.157 38.5824 256.275 38.5824C255.393 38.5824 254.678 39.2972 254.678 40.179C254.678 41.0608 255.393 41.7757 256.275 41.7757Z" fill="#6C63FF"/>
<path d="M250.288 36.1874C251.169 36.1874 251.884 35.4726 251.884 34.5908C251.884 33.709 251.169 32.9941 250.288 32.9941C249.406 32.9941 248.691 33.709 248.691 34.5908C248.691 35.4726 249.406 36.1874 250.288 36.1874Z" fill="#6C63FF"/>
<path d="M249.489 40.179C248.902 40.1791 248.326 40.3423 247.826 40.6504C247.385 39.9878 246.867 39.3801 246.283 38.8399C246.29 38.7547 246.296 38.6693 246.296 38.5824C246.297 37.9558 246.112 37.343 245.767 36.8203C245.421 36.2977 244.93 35.8883 244.353 35.6433C243.776 35.3982 243.14 35.3283 242.524 35.4424C241.908 35.5564 241.339 35.8492 240.889 36.2844C240.034 36.1631 239.166 36.1555 238.309 36.2619C238.31 36.2369 238.313 36.2126 238.313 36.1874C238.314 35.6529 238.18 35.1268 237.925 34.6573C237.669 34.1878 237.3 33.7899 236.851 33.5001C236.402 33.2104 235.887 33.038 235.354 32.9987C234.821 32.9595 234.286 33.0547 233.8 33.2756C233.313 33.4965 232.89 33.8361 232.568 34.2631C232.247 34.6902 232.038 35.1911 231.96 35.7199C231.883 36.2487 231.939 36.7886 232.124 37.29C232.309 37.7913 232.617 38.2382 233.02 38.5896C232.486 39.0475 232.001 39.5604 231.574 40.1198C231.179 39.7918 230.712 39.5636 230.211 39.4544C229.71 39.3452 229.19 39.3583 228.695 39.4925C228.2 39.6268 227.745 39.8782 227.368 40.2256C226.991 40.573 226.703 41.0062 226.528 41.4884C226.354 41.9706 226.298 42.4877 226.366 42.996C226.434 43.5043 226.623 43.9888 226.917 44.4085C227.212 44.8282 227.603 45.1708 228.058 45.4073C228.513 45.6438 229.019 45.7673 229.531 45.7673L229.541 45.7667C229.536 45.8995 229.531 46.0324 229.531 46.1664C229.531 46.9699 229.628 47.7704 229.82 48.5506C228.871 48.9077 228.028 49.5001 227.371 50.2721C226.714 51.0442 226.263 51.9706 226.062 52.9644C225.861 53.9583 225.915 54.9869 226.221 55.9539C226.526 56.9209 227.072 57.7944 227.807 58.4926C228.543 59.1907 229.443 59.6906 230.425 59.9452C231.406 60.1999 232.436 60.201 233.418 59.9485C234.401 59.6959 235.302 59.198 236.039 58.5015C236.776 57.8049 237.324 56.9326 237.631 55.9663C239.852 56.3932 242.153 56.052 244.155 54.9986C244.359 55.4798 244.678 55.9035 245.085 56.2324C245.491 56.5613 245.972 56.7855 246.485 56.8852C246.998 56.9849 247.528 56.957 248.028 56.8042C248.528 56.6513 248.983 56.378 249.352 56.0084C249.722 55.6387 249.995 55.184 250.148 54.684C250.301 54.1841 250.329 53.6543 250.229 53.1411C250.129 52.6279 249.905 52.147 249.576 51.7407C249.247 51.3344 248.824 51.015 248.342 50.8106C249.034 49.4982 249.422 48.0474 249.479 46.5651L249.489 46.5656C250.336 46.5656 251.148 46.2292 251.747 45.6303C252.346 45.0314 252.683 44.2192 252.683 43.3723C252.683 42.5254 252.346 41.7132 251.747 41.1143C251.148 40.5155 250.336 40.179 249.489 40.179V40.179Z" fill="#6C63FF"/>
<path d="M248.691 15.431H232.725V17.826H248.691V15.431Z" fill="#E6E6E6"/>
<path d="M339.7 16.6285H284.615V71.7127H339.7V16.6285Z" fill="#3F3D56"/>
<path d="M322.616 53.99C323.012 53.99 323.334 53.6683 323.334 53.2715C323.334 52.8747 323.012 52.553 322.616 52.553C322.219 52.553 321.897 52.8747 321.897 53.2715C321.897 53.6683 322.219 53.99 322.616 53.99Z" fill="#6C63FF"/>
<path d="M319.921 51.4753C320.318 51.4753 320.64 51.1536 320.64 50.7568C320.64 50.36 320.318 50.0383 319.921 50.0383C319.524 50.0383 319.203 50.36 319.203 50.7568C319.203 51.1536 319.524 51.4753 319.921 51.4753Z" fill="#6C63FF"/>
<path d="M319.562 53.2715C319.298 53.2715 319.038 53.345 318.813 53.4836C318.615 53.1855 318.382 52.912 318.119 52.6689C318.122 52.6306 318.125 52.5921 318.125 52.553C318.125 52.2711 318.042 51.9953 317.887 51.7601C317.731 51.5249 317.51 51.3407 317.251 51.2304C316.991 51.1201 316.705 51.0887 316.428 51.14C316.15 51.1913 315.894 51.3231 315.692 51.5189C315.307 51.4643 314.916 51.4609 314.531 51.5088C314.531 51.4975 314.533 51.4866 314.533 51.4753C314.533 51.2347 314.473 50.998 314.358 50.7867C314.243 50.5754 314.077 50.3964 313.875 50.266C313.672 50.1356 313.441 50.058 313.201 50.0404C312.961 50.0227 312.721 50.0656 312.502 50.165C312.283 50.2644 312.092 50.4172 311.947 50.6093C311.803 50.8015 311.709 51.0269 311.674 51.2649C311.639 51.5029 311.664 51.7458 311.748 51.9714C311.831 52.197 311.97 52.3981 312.151 52.5563C311.91 52.7623 311.692 52.9931 311.5 53.2449C311.322 53.0973 311.112 52.9946 310.887 52.9454C310.661 52.8963 310.427 52.9022 310.205 52.9626C309.982 53.023 309.777 53.1362 309.607 53.2925C309.438 53.4488 309.308 53.6437 309.229 53.8607C309.151 54.0777 309.126 54.3104 309.156 54.5391C309.187 54.7679 309.272 54.9859 309.405 55.1748C309.537 55.3636 309.713 55.5178 309.918 55.6242C310.123 55.7307 310.35 55.7862 310.581 55.7862L310.585 55.786C310.583 55.8457 310.581 55.9055 310.581 55.9658C310.581 56.3274 310.625 56.6876 310.711 57.0387C310.284 57.1994 309.905 57.466 309.609 57.8134C309.313 58.1608 309.11 58.5777 309.02 59.0249C308.929 59.4722 308.954 59.9351 309.091 60.3702C309.228 60.8053 309.474 61.1984 309.805 61.5126C310.136 61.8267 310.541 62.0517 310.983 62.1663C311.425 62.2809 311.888 62.2814 312.33 62.1677C312.772 62.0541 313.178 61.83 313.509 61.5166C313.841 61.2031 314.087 60.8106 314.226 60.3758C315.225 60.5679 316.261 60.4143 317.161 59.9403C317.253 60.1568 317.397 60.3475 317.58 60.4955C317.763 60.6435 317.979 60.7444 318.21 60.7893C318.441 60.8341 318.679 60.8216 318.904 60.7528C319.129 60.684 319.334 60.561 319.5 60.3947C319.667 60.2284 319.79 60.0237 319.858 59.7987C319.927 59.5738 319.94 59.3354 319.895 59.1044C319.85 58.8735 319.749 58.6571 319.601 58.4743C319.453 58.2914 319.262 58.1477 319.046 58.0557C319.357 57.4651 319.532 56.8123 319.557 56.1452L319.562 56.1455C319.943 56.1455 320.309 55.9941 320.578 55.7246C320.847 55.4551 320.999 55.0896 320.999 54.7085C320.999 54.3274 320.847 53.9619 320.578 53.6924C320.309 53.4229 319.943 53.2715 319.562 53.2715V53.2715Z" fill="#6C63FF"/>
<path d="M328.252 40.3553C328.649 40.3553 328.971 40.0336 328.971 39.6368C328.971 39.24 328.649 38.9183 328.252 38.9183C327.856 38.9183 327.534 39.24 327.534 39.6368C327.534 40.0336 327.856 40.3553 328.252 40.3553Z" fill="#6C63FF"/>
<path d="M329.943 37.0802C330.339 37.0802 330.661 36.7585 330.661 36.3617C330.661 35.9649 330.339 35.6432 329.943 35.6432C329.546 35.6432 329.224 35.9649 329.224 36.3617C329.224 36.7585 329.546 37.0802 329.943 37.0802Z" fill="#6C63FF"/>
<path d="M327.425 36.6976C327.353 36.4431 327.212 36.2136 327.018 36.0345C327.251 35.7628 327.451 35.4644 327.614 35.1454C327.651 35.138 327.689 35.1303 327.727 35.1197C327.998 35.0434 328.241 34.889 328.425 34.6756C328.61 34.4622 328.727 34.1992 328.763 33.9196C328.799 33.6399 328.751 33.3559 328.627 33.1029C328.502 32.85 328.306 32.6393 328.063 32.4972C328.011 32.112 327.908 31.7353 327.758 31.377C327.768 31.3742 327.779 31.3726 327.79 31.3696C328.022 31.3047 328.234 31.1827 328.406 31.0148C328.578 30.8468 328.705 30.6384 328.776 30.4085C328.847 30.1786 328.859 29.9346 328.811 29.699C328.763 29.4633 328.656 29.2434 328.501 29.0596C328.346 28.8757 328.147 28.7337 327.923 28.6465C327.699 28.5594 327.456 28.53 327.218 28.5609C326.979 28.5918 326.752 28.682 326.558 28.8234C326.363 28.9648 326.207 29.1528 326.104 29.3701C325.841 29.1944 325.559 29.0469 325.265 28.9301C325.359 28.7194 325.401 28.4891 325.387 28.2588C325.373 28.0284 325.304 27.8048 325.185 27.6068C325.067 27.4088 324.903 27.2423 324.706 27.1213C324.51 27.0003 324.287 26.9284 324.057 26.9117C323.827 26.895 323.596 26.934 323.384 27.0253C323.172 27.1167 322.985 27.2577 322.839 27.4365C322.693 27.6153 322.593 27.8266 322.546 28.0525C322.499 28.2784 322.507 28.5123 322.57 28.7344L322.571 28.7388C322.513 28.7527 322.455 28.7668 322.397 28.7831C322.049 28.8812 321.714 29.0208 321.399 29.1991C321.129 28.8315 320.769 28.5388 320.355 28.3482C319.94 28.1576 319.484 28.0755 319.029 28.1096C318.574 28.1437 318.135 28.2928 317.753 28.543C317.372 28.7932 317.06 29.1362 316.847 29.5399C316.635 29.9436 316.528 30.3947 316.537 30.8509C316.547 31.3071 316.672 31.7534 316.901 32.148C317.13 32.5426 317.456 32.8725 317.848 33.1067C318.239 33.3409 318.684 33.4718 319.14 33.487C319.226 34.5012 319.654 35.456 320.355 36.1945C320.171 36.3418 320.027 36.5318 319.934 36.7479C319.841 36.964 319.802 37.1997 319.822 37.4341C319.841 37.6686 319.918 37.8947 320.045 38.0926C320.172 38.2905 320.346 38.4541 320.551 38.5691C320.757 38.6842 320.987 38.747 321.222 38.7523C321.457 38.7575 321.69 38.7049 321.9 38.5991C322.111 38.4934 322.291 38.3376 322.427 38.1456C322.563 37.9535 322.65 37.7311 322.68 37.4977C323.333 37.6372 324.008 37.6284 324.657 37.4722L324.658 37.4766C324.709 37.6584 324.796 37.8283 324.912 37.9767C325.029 38.1251 325.174 38.249 325.339 38.3414C325.503 38.4337 325.685 38.4928 325.872 38.5151C326.06 38.5374 326.25 38.5225 326.431 38.4713C326.613 38.4201 326.783 38.3336 326.931 38.2168C327.079 38.0999 327.203 37.955 327.296 37.7903C327.388 37.6256 327.447 37.4443 327.469 37.2568C327.491 37.0693 327.476 36.8793 327.425 36.6976V36.6976Z" fill="#6C63FF"/>
<path d="M300.424 30.5918C300.821 30.5918 301.143 30.2701 301.143 29.8733C301.143 29.4765 300.821 29.1548 300.424 29.1548C300.027 29.1548 299.706 29.4765 299.706 29.8733C299.706 30.2701 300.027 30.5918 300.424 30.5918Z" fill="#6C63FF"/>
<path d="M296.75 30.8861C297.147 30.8861 297.469 30.5644 297.469 30.1676C297.469 29.7708 297.147 29.4491 296.75 29.4491C296.354 29.4491 296.032 29.7708 296.032 30.1676C296.032 30.5644 296.354 30.8861 296.75 30.8861Z" fill="#6C63FF"/>
<path d="M298.365 32.1284C298.187 32.3237 298.067 32.5646 298.017 32.8243C297.663 32.7697 297.304 32.7574 296.948 32.7877C296.921 32.7596 296.895 32.7316 296.866 32.7053C296.658 32.515 296.398 32.3902 296.12 32.3465C295.841 32.3027 295.556 32.3419 295.3 32.4592C295.043 32.5765 294.827 32.7667 294.678 33.006C294.529 33.2454 294.454 33.5233 294.462 33.8051C294.162 34.0525 293.896 34.3385 293.672 34.6556C293.663 34.6478 293.656 34.6393 293.648 34.6317C293.47 34.4693 293.255 34.3541 293.022 34.2965C292.788 34.239 292.544 34.2409 292.311 34.3023C292.079 34.3636 291.865 34.4824 291.69 34.6476C291.516 34.8129 291.385 35.0193 291.311 35.2481C291.237 35.4769 291.221 35.7206 291.265 35.957C291.31 36.1934 291.413 36.4149 291.565 36.6011C291.717 36.7873 291.914 36.9324 292.137 37.023C292.359 37.1135 292.601 37.1467 292.84 37.1195C292.83 37.4361 292.854 37.7528 292.91 38.0645C292.681 38.096 292.464 38.1821 292.276 38.3155C292.087 38.4488 291.934 38.6256 291.828 38.8308C291.723 39.036 291.668 39.2636 291.669 39.4943C291.67 39.7251 291.727 39.9522 291.834 40.1565C291.941 40.3607 292.096 40.5361 292.286 40.6678C292.475 40.7995 292.694 40.8836 292.923 40.9131C293.152 40.9425 293.384 40.9165 293.601 40.837C293.817 40.7576 294.012 40.6271 294.167 40.4567L294.17 40.4532C294.213 40.4952 294.255 40.5371 294.3 40.5778C294.567 40.8215 294.862 41.0322 295.18 41.2052C295.011 41.6289 294.952 42.0887 295.009 42.5414C295.066 42.9941 295.237 43.4249 295.507 43.7933C295.776 44.1617 296.134 44.4557 296.548 44.6476C296.962 44.8395 297.418 44.9231 297.873 44.8906C298.328 44.858 298.768 44.7103 299.15 44.4614C299.533 44.2125 299.846 43.8705 300.06 43.4675C300.274 43.0645 300.382 42.6137 300.374 42.1575C300.366 41.7013 300.242 41.2545 300.014 40.8592C300.83 40.2505 301.415 39.3825 301.672 38.3977C301.894 38.4758 302.132 38.4982 302.364 38.4629C302.597 38.4277 302.817 38.3359 303.006 38.1956C303.195 38.0553 303.346 37.8708 303.447 37.6582C303.548 37.4457 303.595 37.2117 303.584 36.9767C303.574 36.7417 303.506 36.5129 303.386 36.3104C303.266 36.1079 303.098 35.9379 302.898 35.8153C302.697 35.6928 302.469 35.6214 302.234 35.6074C301.999 35.5934 301.765 35.6373 301.551 35.7352C301.324 35.1072 300.96 34.538 300.485 34.0693L300.488 34.0662C300.615 33.9268 300.714 33.7638 300.779 33.5862C300.843 33.4087 300.872 33.2202 300.864 33.0315C300.855 32.8428 300.81 32.6576 300.729 32.4866C300.649 32.3155 300.536 32.1619 300.397 32.0346C300.257 31.9072 300.094 31.8086 299.917 31.7444C299.739 31.6802 299.55 31.6516 299.362 31.6603C299.173 31.6691 298.988 31.7149 298.817 31.7952C298.646 31.8755 298.493 31.9888 298.365 32.1284V32.1284Z" fill="#6C63FF"/>
<path d="M318.943 15.431H302.977V17.826H318.943V15.431Z" fill="#E6E6E6"/>
<path d="M183.573 204.331C189.329 212.039 201.277 212.85 201.277 212.85C201.277 212.85 203.893 201.164 198.137 193.456C192.381 185.748 180.433 184.937 180.433 184.937C180.433 184.937 177.817 196.623 183.573 204.331Z" fill="#3E6ED6"/>
<path d="M212.894 207.229C209.096 212.315 201.212 212.851 201.212 212.851C201.212 212.851 199.486 205.139 203.284 200.053C207.082 194.967 214.966 194.431 214.966 194.431C214.966 194.431 216.692 202.143 212.894 207.229Z" fill="#776FFB"/>
<g filter="url(#filter0_f_156_1057)">
<path d="M228.334 230.667H125.351V231.111H228.334V230.667Z" fill="#3F3D56"/>
</g>
</g>
<path d="M4 116L192.594 316.478L379 319.452V725H4V116Z" fill="#F3F5FB"/>
<path d="M379 319H212.422C198.524 319 185.254 313.216 175.794 303.035L2 116" stroke="#1B75BB" stroke-width="4"/>
<g filter="url(#filter1_f_156_1057)">
<circle cx="81.5458" cy="233.704" r="44.5614" fill="#D8EBFF"/>
</g>
<circle cx="97.7496" cy="217.5" r="60.7653" fill="#EFF2F7"/>
<circle cx="97.7496" cy="217.5" r="57.0777" fill="white"/>
<path d="M126.414 216.57H126.401C125.731 216.58 125.092 216.853 124.623 217.332C124.153 217.81 123.891 218.454 123.894 219.125C123.894 220.57 124.963 221.63 126.411 221.63C126.743 221.634 127.073 221.573 127.38 221.448C127.688 221.323 127.968 221.138 128.203 220.903C128.438 220.669 128.624 220.389 128.75 220.082C128.876 219.774 128.939 219.444 128.935 219.112C128.924 217.733 127.766 216.57 126.414 216.57Z" fill="#2D65D6"/>
<path d="M131.771 213.878C130.394 212.453 128.509 211.629 126.528 211.588H126.386C122.36 211.588 118.941 215.024 118.919 219.092C118.916 221.067 119.691 222.963 121.076 224.37C122.461 225.777 124.344 226.58 126.317 226.606H126.371C127.27 226.608 128.163 226.453 129.008 226.147C127.75 231.655 125.042 236.803 121.312 241.057C119.764 242.816 118.056 244.427 116.211 245.871C113.332 248.145 110.154 250.014 106.768 251.425C103.393 252.838 99.8127 253.694 96.1648 253.961C95.2555 254.024 94.3248 254.06 93.3857 254.06C90.5795 254.06 87.6978 253.742 85.074 252.89C83.774 252.476 82.5296 251.904 81.3686 251.187C80.204 250.464 79.1572 249.567 78.2645 248.527C77.5708 247.717 77.0338 246.785 76.6811 245.778C76.3356 244.788 76.1607 243.747 76.1638 242.699C76.1693 240.58 76.8415 238.517 78.0849 236.802C78.9301 235.634 79.9904 234.642 81.1362 233.698C82.2821 232.754 83.5106 231.861 84.6807 230.88C85.6136 230.108 86.4703 229.248 87.2389 228.312C87.7882 227.631 88.2748 226.902 88.6925 226.134V230.183C88.6929 231.209 89.1001 232.192 89.8246 232.917C90.5491 233.642 91.5316 234.05 92.5562 234.05H96.3885C97.4131 234.05 98.3956 233.642 99.1201 232.917C99.8446 232.192 100.252 231.209 100.252 230.183V227.83C100.257 227.564 100.156 227.306 99.9719 227.114C99.7873 226.922 99.5342 226.812 99.2681 226.806C99.002 226.801 98.7448 226.902 98.553 227.087C98.3612 227.272 98.2506 227.525 98.2455 227.791V230.183C98.2473 230.432 98.1988 230.678 98.103 230.907C97.9618 231.239 97.7277 231.523 97.4289 231.725C97.1228 231.933 96.7612 232.043 96.3914 232.042H92.5591C92.311 232.044 92.0652 231.995 91.8365 231.899C91.4995 231.758 91.2117 231.52 91.0089 231.215C90.8062 230.911 90.6975 230.554 90.6963 230.188V223.887C90.6963 223.636 90.5965 223.394 90.4188 223.217C90.241 223.039 90 222.939 89.7486 222.939H83.4593C83.1546 222.939 82.8544 222.865 82.5854 222.721C82.3165 222.578 82.0869 222.37 81.9172 222.117C81.7095 221.811 81.5992 221.449 81.6009 221.079V217.245C81.5991 216.996 81.6476 216.749 81.7434 216.52C81.8845 216.188 82.1186 215.903 82.4175 215.701C82.724 215.493 83.0861 215.383 83.4564 215.385H85.6455C85.9076 215.388 86.1609 215.29 86.3532 215.112C86.5455 214.933 86.662 214.688 86.6788 214.426C86.6857 214.291 86.6651 214.155 86.6181 214.028C86.5711 213.901 86.4987 213.785 86.4053 213.687C86.312 213.588 86.1997 213.51 86.0751 213.457C85.9506 213.403 85.8166 213.376 85.6811 213.376H83.4593C82.4342 213.376 81.4511 213.784 80.7263 214.509C80.0014 215.235 79.5942 216.219 79.5942 217.245V221.074C79.594 221.582 79.6939 222.086 79.8881 222.555C80.0823 223.024 80.367 223.451 80.7259 223.81C81.0849 224.169 81.5111 224.454 81.9801 224.648C82.4491 224.842 82.9517 224.942 83.4593 224.941H87.94C87.4948 225.869 86.9408 226.741 86.2897 227.537C85.5702 228.415 84.7685 229.222 83.8954 229.947C82.7695 230.891 81.5424 231.782 80.3595 232.758C79.1766 233.734 78.0336 234.792 77.0959 236.086C75.7019 238.009 74.9484 240.323 74.9424 242.699C74.9392 243.885 75.1378 245.063 75.5296 246.183C75.9323 247.332 76.5451 248.397 77.3367 249.321C78.3099 250.456 79.4509 251.434 80.7201 252.223C82.5842 253.389 84.6678 254.151 86.8241 254.625C88.9798 255.076 91.1776 255.296 93.38 255.279C94.3491 255.279 95.3068 255.242 96.2417 255.18C100.021 254.903 103.73 254.016 107.226 252.554C110.714 251.101 113.988 249.177 116.957 246.837C118.862 245.346 120.626 243.683 122.226 241.868C126.299 237.226 129.198 231.556 130.4 225.478C131.351 224.884 132.156 224.085 132.756 223.138C133.356 222.192 133.736 221.122 133.868 220.009C133.999 218.896 133.879 217.767 133.517 216.706C133.154 215.646 132.557 214.68 131.771 213.881V213.878ZM129.196 221.839C128.832 222.207 128.399 222.498 127.921 222.696C127.444 222.893 126.931 222.994 126.414 222.99C124.209 222.99 122.542 221.328 122.536 219.127C122.531 218.096 122.934 217.105 123.657 216.37C124.38 215.635 125.364 215.217 126.394 215.206H126.414C126.923 215.208 127.426 215.311 127.895 215.51C128.363 215.708 128.788 215.998 129.143 216.362C129.874 217.085 130.291 218.066 130.308 219.095C130.315 219.603 130.22 220.108 130.029 220.579C129.838 221.051 129.555 221.479 129.196 221.839V221.839Z" fill="#2D65D6"/>
<path d="M109.046 215.739C108.75 215.039 108.254 214.441 107.62 214.021C106.987 213.601 106.243 213.377 105.483 213.377H100.253V208.137C100.253 207.629 100.153 207.126 99.9591 206.656C99.7649 206.187 99.4802 205.761 99.1212 205.401C98.7623 205.042 98.3361 204.758 97.8671 204.563C97.3981 204.369 96.8954 204.269 96.3879 204.27H92.5584C92.0507 204.269 91.5479 204.369 91.0787 204.563C90.6096 204.757 90.1832 205.042 89.8241 205.401C89.465 205.76 89.1802 206.187 88.9859 206.656C88.7916 207.125 88.6917 207.629 88.6919 208.137V214.27C88.6919 214.535 88.797 214.789 88.9841 214.976C89.1712 215.164 89.4249 215.269 89.6895 215.269C89.7299 215.271 89.7703 215.271 89.8107 215.269H89.8976C90.3531 215.289 90.8063 215.346 91.2529 215.438C91.9672 215.576 92.6647 215.79 93.3337 216.076C93.9307 216.331 94.4964 216.654 95.0197 217.039C96.1728 217.891 97.0401 219.074 97.5066 220.431C97.8825 221.546 98.0657 222.716 98.0482 223.893C98.0482 224.02 98.0732 224.146 98.1219 224.263C98.1705 224.381 98.2418 224.487 98.3317 224.577C98.4216 224.667 98.5283 224.738 98.6457 224.787C98.7631 224.835 98.8889 224.86 99.0159 224.86H99.0957C99.2216 224.915 99.3575 224.943 99.4947 224.943H105.48C105.989 224.944 106.493 224.846 106.963 224.652C107.434 224.459 107.861 224.174 108.221 223.815C108.581 223.456 108.867 223.029 109.062 222.559C109.257 222.088 109.357 221.585 109.357 221.076V217.246C109.355 216.728 109.249 216.216 109.046 215.739ZM107.345 221.076C107.346 221.324 107.297 221.57 107.202 221.799C107.061 222.131 106.827 222.416 106.528 222.619C106.221 222.826 105.859 222.936 105.489 222.936H99.9622C99.9131 222.116 99.7803 221.303 99.566 220.511C99.3458 219.692 99.019 218.905 98.594 218.171C97.95 217.072 97.0793 216.122 96.0401 215.386C95.3756 214.913 94.6581 214.519 93.9023 214.213C93.0205 213.858 92.101 213.604 91.1617 213.457C90.995 213.432 90.8425 213.412 90.7057 213.396V208.137C90.7038 207.889 90.7523 207.642 90.8482 207.414C90.9898 207.076 91.2275 206.788 91.5316 206.585C91.8358 206.382 92.1929 206.274 92.5584 206.272H96.3879C96.6923 206.272 96.9922 206.347 97.2609 206.49C97.5296 206.634 97.7589 206.841 97.9285 207.094C98.136 207.4 98.2463 207.762 98.2449 208.132V214.283C98.2449 214.314 98.2449 214.346 98.2449 214.377C98.2449 214.41 98.2449 214.441 98.2449 214.473C98.2449 214.591 98.2682 214.709 98.3136 214.818C98.3589 214.928 98.4254 215.027 98.5092 215.111C98.593 215.194 98.6924 215.261 98.8019 215.306C98.9113 215.351 99.0286 215.374 99.147 215.374H105.488C105.736 215.372 105.981 215.421 106.21 215.517C106.543 215.658 106.827 215.892 107.03 216.192C107.237 216.499 107.347 216.861 107.346 217.231L107.345 221.076Z" fill="#48B0E0"/>
<path d="M62.9936 205.823C64.6622 201.709 67.1216 197.963 70.2321 194.798L70.4073 194.621V183.866C70.4073 183.321 70.3001 182.782 70.0918 182.279C69.8836 181.776 69.5783 181.319 69.1934 180.934C68.8085 180.549 68.3516 180.243 67.8488 180.035C67.346 179.827 66.8071 179.719 66.2629 179.72H65.7256C65.1815 179.719 64.6427 179.827 64.14 180.035C63.6372 180.243 63.1804 180.549 62.7957 180.934C62.4109 181.319 62.1058 181.776 61.8976 182.279C61.6895 182.782 61.5825 183.322 61.5826 183.866V210.088C61.9579 208.636 62.4292 207.211 62.9936 205.823V205.823Z" fill="#2D65D6"/>
<path d="M118.337 222.08C117.496 227.791 114.637 233.01 110.28 236.791C105.922 240.573 100.355 242.665 94.5877 242.689C94.5593 242.691 94.5307 242.691 94.5022 242.689C93.3493 242.71 92.2506 243.183 91.4426 244.006C90.6346 244.829 90.1819 245.937 90.1819 247.092C90.1819 248.246 90.6346 249.354 91.4426 250.177C92.2506 251 93.3493 251.473 94.5022 251.494C109.498 251.494 122.151 241.444 126.108 227.71C124.401 227.648 122.752 227.08 121.368 226.077C119.984 225.075 118.929 223.684 118.337 222.08V222.08Z" fill="url(#paint0_linear_156_1057)"/>
<path d="M118.435 215.848C119.079 214.265 120.178 212.909 121.593 211.952C123.009 210.995 124.676 210.481 126.384 210.475C122.821 196.387 110.2 185.913 95.0832 185.642C94.8851 185.642 94.6828 185.642 94.4847 185.642C76.1127 185.642 61.2253 200.773 61.5873 219.233C61.5873 219.263 61.5873 219.293 61.5873 219.325V228.799C61.5768 229.384 61.6828 229.965 61.8992 230.508C62.1156 231.052 62.4381 231.547 62.8477 231.964C63.2573 232.382 63.746 232.713 64.2851 232.94C64.8242 233.166 65.4029 233.283 65.9875 233.283C66.5721 233.283 67.1509 233.166 67.69 232.94C68.2291 232.713 68.7177 232.382 69.1273 231.964C69.537 231.547 69.8594 231.052 70.0758 230.508C70.2922 229.965 70.3983 229.384 70.3878 228.799V220.187C70.4022 220.045 70.4093 219.902 70.4091 219.76C70.4091 219.73 70.4091 219.708 70.4091 219.684C70.392 219.315 70.3821 218.945 70.3821 218.573C70.3815 215.405 71.0045 212.267 72.2156 209.34C73.4266 206.413 75.2019 203.753 77.4401 201.513C79.6783 199.272 82.3356 197.495 85.2601 196.283C88.1846 195.07 91.3192 194.447 94.4847 194.447C96.1885 194.448 97.8878 194.622 99.5569 194.965C104.116 195.9 108.3 198.155 111.591 201.448C114.881 204.742 117.134 208.929 118.069 213.492C118.23 214.282 118.352 215.068 118.435 215.848Z" fill="url(#paint1_linear_156_1057)"/>
<path d="M341.188 135C342.741 135 344.01 136.261 343.901 137.81C343.481 143.782 341.723 149.597 338.745 154.818C335.302 160.856 330.344 165.892 324.362 169.43C318.379 172.968 311.578 174.886 304.628 174.995C298.618 175.089 292.676 173.828 287.24 171.319C285.83 170.669 285.336 168.949 286.085 167.588V167.588C286.833 166.227 288.539 165.742 289.957 166.376C294.53 168.423 299.507 169.45 304.54 169.371C310.512 169.277 316.357 167.629 321.499 164.588C326.64 161.548 330.9 157.22 333.86 152.032C336.354 147.659 337.851 142.803 338.261 137.809C338.387 136.261 339.635 135 341.188 135V135Z" fill="#2C62D6"/>
<g filter="url(#filter2_i_156_1057)">
<circle cx="304" cy="135" r="32.8358" fill="white"/>
</g>
<path d="M317.57 134.559H317.564C317.247 134.564 316.944 134.693 316.722 134.92C316.5 135.146 316.376 135.451 316.377 135.768C316.377 136.453 316.883 136.954 317.568 136.954C317.726 136.957 317.882 136.927 318.027 136.868C318.173 136.809 318.306 136.722 318.417 136.61C318.528 136.499 318.616 136.367 318.676 136.222C318.735 136.076 318.765 135.92 318.763 135.762C318.758 135.109 318.21 134.559 317.57 134.559Z" fill="#2D65D6"/>
<path d="M320.106 133.285C319.454 132.61 318.562 132.22 317.624 132.201H317.556C315.65 132.201 314.032 133.827 314.022 135.753C314.02 136.688 314.387 137.586 315.043 138.252C315.698 138.918 316.59 139.298 317.524 139.311H317.55C317.975 139.312 318.398 139.238 318.798 139.093C318.202 141.701 316.92 144.138 315.155 146.152C314.422 146.984 313.613 147.747 312.74 148.431C311.377 149.507 309.872 150.392 308.269 151.06C306.672 151.729 304.976 152.134 303.249 152.261C302.819 152.291 302.378 152.308 301.934 152.308C300.605 152.308 299.241 152.157 297.999 151.754C297.384 151.558 296.794 151.287 296.245 150.948C295.693 150.605 295.198 150.181 294.775 149.688C294.447 149.305 294.193 148.863 294.026 148.387C293.862 147.918 293.779 147.425 293.781 146.929C293.783 145.926 294.102 144.949 294.69 144.137C295.09 143.584 295.592 143.115 296.135 142.668C296.677 142.221 297.259 141.798 297.813 141.334C298.254 140.968 298.66 140.561 299.024 140.118C299.284 139.796 299.514 139.451 299.712 139.087V141.004C299.712 141.49 299.905 141.955 300.248 142.298C300.591 142.642 301.056 142.835 301.541 142.835H303.355C303.84 142.835 304.306 142.642 304.649 142.298C304.992 141.955 305.184 141.49 305.185 141.004V139.89C305.187 139.764 305.139 139.642 305.052 139.551C304.964 139.46 304.845 139.408 304.719 139.405C304.593 139.403 304.471 139.451 304.38 139.538C304.289 139.626 304.237 139.746 304.235 139.872V141.004C304.235 141.122 304.212 141.238 304.167 141.346C304.1 141.504 303.989 141.638 303.848 141.734C303.703 141.832 303.532 141.885 303.357 141.884H301.542C301.425 141.885 301.309 141.862 301.2 141.816C301.041 141.749 300.905 141.637 300.809 141.493C300.713 141.349 300.661 141.179 300.661 141.006V138.023C300.661 137.904 300.613 137.79 300.529 137.706C300.445 137.622 300.331 137.574 300.212 137.574H297.235C297.09 137.575 296.948 137.539 296.821 137.471C296.694 137.404 296.585 137.305 296.505 137.185C296.406 137.04 296.354 136.869 296.355 136.694V134.879C296.354 134.761 296.377 134.644 296.422 134.536C296.489 134.378 296.6 134.244 296.741 134.148C296.886 134.05 297.058 133.997 297.233 133.998H298.27C298.394 134 298.514 133.953 298.605 133.869C298.696 133.784 298.751 133.668 298.759 133.544C298.762 133.48 298.752 133.416 298.73 133.356C298.708 133.296 298.673 133.241 298.629 133.194C298.585 133.148 298.532 133.111 298.473 133.086C298.414 133.06 298.351 133.047 298.286 133.047H297.235C296.749 133.047 296.284 133.24 295.941 133.584C295.598 133.927 295.405 134.393 295.405 134.879V136.692C295.405 136.932 295.452 137.17 295.544 137.393C295.636 137.615 295.771 137.817 295.941 137.987C296.11 138.157 296.312 138.292 296.534 138.384C296.756 138.475 296.994 138.523 297.235 138.522H299.356C299.145 138.962 298.883 139.374 298.574 139.751C298.234 140.167 297.854 140.549 297.441 140.892C296.908 141.339 296.327 141.761 295.767 142.223C295.207 142.685 294.666 143.186 294.222 143.798C293.562 144.709 293.205 145.804 293.203 146.929C293.201 147.491 293.295 148.049 293.481 148.579C293.671 149.123 293.961 149.626 294.336 150.064C294.797 150.601 295.337 151.064 295.938 151.438C296.82 151.99 297.807 152.351 298.828 152.575C299.848 152.789 300.888 152.893 301.931 152.885C302.39 152.885 302.843 152.867 303.286 152.838C305.075 152.707 306.831 152.287 308.486 151.594C310.137 150.907 311.687 149.996 313.093 148.888C313.995 148.182 314.83 147.395 315.587 146.536C317.515 144.338 318.888 141.654 319.457 138.776C319.907 138.496 320.288 138.117 320.572 137.669C320.856 137.221 321.036 136.714 321.099 136.187C321.161 135.66 321.104 135.126 320.932 134.624C320.761 134.122 320.478 133.665 320.106 133.286V133.285ZM318.887 137.054C318.715 137.228 318.51 137.366 318.283 137.459C318.057 137.553 317.815 137.6 317.57 137.599C316.526 137.599 315.737 136.812 315.734 135.77C315.732 135.282 315.922 134.813 316.265 134.465C316.607 134.117 317.073 133.919 317.561 133.914H317.57C317.811 133.915 318.049 133.963 318.271 134.057C318.493 134.151 318.694 134.288 318.862 134.461C319.208 134.803 319.406 135.268 319.413 135.755C319.417 135.995 319.372 136.234 319.281 136.457C319.191 136.68 319.057 136.883 318.887 137.054V137.054Z" fill="#2D65D6"/>
<path d="M309.348 134.166C309.208 133.835 308.973 133.552 308.673 133.353C308.373 133.154 308.021 133.048 307.661 133.048H305.185V130.567C305.185 130.326 305.138 130.088 305.046 129.866C304.954 129.644 304.819 129.442 304.649 129.272C304.479 129.102 304.278 128.967 304.056 128.875C303.834 128.783 303.596 128.736 303.355 128.736H301.542C301.302 128.736 301.064 128.783 300.842 128.875C300.62 128.967 300.418 129.102 300.248 129.272C300.078 129.442 299.943 129.644 299.851 129.866C299.759 130.088 299.712 130.326 299.712 130.567V133.471C299.712 133.596 299.762 133.716 299.85 133.805C299.939 133.893 300.059 133.943 300.184 133.943C300.203 133.944 300.223 133.944 300.242 133.943H300.283C300.498 133.953 300.713 133.98 300.924 134.024C301.263 134.089 301.593 134.19 301.91 134.325C302.192 134.446 302.46 134.599 302.708 134.781C303.254 135.185 303.664 135.745 303.885 136.387C304.063 136.915 304.15 137.469 304.141 138.026C304.141 138.086 304.153 138.146 304.176 138.201C304.199 138.257 304.233 138.307 304.276 138.35C304.318 138.392 304.369 138.426 304.424 138.449C304.48 138.472 304.539 138.484 304.6 138.484H304.637C304.697 138.51 304.761 138.523 304.826 138.523H307.66C307.901 138.524 308.139 138.477 308.362 138.386C308.585 138.294 308.787 138.159 308.957 137.989C309.128 137.819 309.263 137.617 309.356 137.394C309.448 137.172 309.495 136.933 309.495 136.692V134.879C309.494 134.634 309.444 134.392 309.348 134.166ZM308.543 136.692C308.543 136.81 308.52 136.926 308.475 137.035C308.408 137.192 308.297 137.327 308.156 137.423C308.011 137.521 307.839 137.573 307.664 137.573H305.048C305.024 137.185 304.961 136.8 304.86 136.425C304.756 136.037 304.601 135.665 304.4 135.317C304.095 134.797 303.683 134.347 303.191 133.999C302.876 133.775 302.537 133.589 302.179 133.444C301.761 133.275 301.326 133.155 300.881 133.086C300.802 133.073 300.73 133.064 300.665 133.057V130.567C300.664 130.449 300.687 130.333 300.733 130.225C300.8 130.065 300.912 129.928 301.056 129.832C301.2 129.736 301.369 129.685 301.542 129.684H303.355C303.5 129.684 303.642 129.72 303.769 129.787C303.896 129.855 304.004 129.953 304.085 130.073C304.183 130.218 304.235 130.39 304.235 130.565V133.477C304.235 133.491 304.235 133.506 304.235 133.521C304.235 133.537 304.235 133.552 304.235 133.566C304.235 133.623 304.246 133.678 304.267 133.73C304.289 133.782 304.32 133.829 304.36 133.868C304.399 133.908 304.446 133.94 304.498 133.961C304.55 133.982 304.606 133.993 304.662 133.993H307.663C307.781 133.992 307.897 134.015 308.005 134.061C308.163 134.128 308.297 134.239 308.393 134.38C308.491 134.526 308.544 134.697 308.543 134.872L308.543 136.692Z" fill="#48B0E0"/>
<path d="M287.546 129.471C288.336 127.524 289.5 125.751 290.973 124.252L291.056 124.168V119.077C291.056 118.819 291.005 118.564 290.906 118.325C290.808 118.087 290.663 117.871 290.481 117.688C290.299 117.506 290.082 117.362 289.844 117.263C289.606 117.164 289.351 117.114 289.094 117.114H288.839C288.582 117.114 288.326 117.164 288.088 117.263C287.85 117.362 287.634 117.506 287.452 117.689C287.27 117.871 287.125 118.087 287.027 118.325C286.928 118.564 286.878 118.819 286.878 119.077V131.49C287.055 130.803 287.279 130.129 287.546 129.471V129.471Z" fill="#2D65D6"/>
<path d="M313.746 137.168C313.348 139.871 311.994 142.342 309.931 144.132C307.869 145.922 305.233 146.913 302.503 146.924C302.489 146.925 302.476 146.925 302.462 146.924C301.916 146.934 301.396 147.158 301.014 147.548C300.631 147.938 300.417 148.462 300.417 149.009C300.417 149.555 300.631 150.079 301.014 150.469C301.396 150.859 301.916 151.083 302.462 151.093C309.561 151.093 315.551 146.335 317.425 139.833C316.617 139.804 315.836 139.535 315.181 139.06C314.526 138.586 314.026 137.927 313.746 137.168V137.168Z" fill="url(#paint2_linear_156_1057)"/>
<path d="M313.792 134.218C314.097 133.468 314.618 132.826 315.288 132.373C315.958 131.92 316.747 131.677 317.556 131.674C315.869 125.004 309.894 120.046 302.737 119.918C302.644 119.918 302.548 119.918 302.454 119.918C293.757 119.918 286.709 127.081 286.88 135.82C286.88 135.835 286.88 135.849 286.88 135.864V140.349C286.875 140.626 286.925 140.901 287.028 141.158C287.13 141.415 287.283 141.65 287.477 141.847C287.671 142.045 287.902 142.202 288.157 142.309C288.412 142.416 288.686 142.472 288.963 142.472C289.24 142.472 289.514 142.416 289.769 142.309C290.024 142.202 290.256 142.045 290.45 141.847C290.644 141.65 290.796 141.415 290.899 141.158C291.001 140.901 291.051 140.626 291.046 140.349V136.272C291.053 136.205 291.056 136.137 291.056 136.07C291.056 136.055 291.056 136.045 291.056 136.034C291.048 135.859 291.044 135.684 291.044 135.508C291.043 134.008 291.338 132.523 291.912 131.137C292.485 129.751 293.325 128.492 294.385 127.431C295.445 126.371 296.703 125.529 298.087 124.955C299.472 124.381 300.956 124.086 302.454 124.086C303.261 124.087 304.065 124.169 304.855 124.331C307.014 124.774 308.994 125.841 310.552 127.401C312.11 128.96 313.176 130.942 313.619 133.102C313.695 133.476 313.753 133.848 313.792 134.218Z" fill="url(#paint3_linear_156_1057)"/>
<defs>
<filter id="filter0_f_156_1057" x="121.351" y="226.667" width="110.983" height="8.44409" filterUnits="userSpaceOnUse" color-interpolation-filters="sRGB">
<feFlood flood-opacity="0" result="BackgroundImageFix"/>
<feBlend mode="normal" in="SourceGraphic" in2="BackgroundImageFix" result="shape"/>
<feGaussianBlur stdDeviation="2" result="effect1_foregroundBlur_156_1057"/>
</filter>
<filter id="filter1_f_156_1057" x="3.98438" y="156.142" width="155.123" height="155.123" filterUnits="userSpaceOnUse" color-interpolation-filters="sRGB">
<feFlood flood-opacity="0" result="BackgroundImageFix"/>
<feBlend mode="normal" in="SourceGraphic" in2="BackgroundImageFix" result="shape"/>
<feGaussianBlur stdDeviation="16.5" result="effect1_foregroundBlur_156_1057"/>
</filter>
<filter id="filter2_i_156_1057" x="271.164" y="102.164" width="65.6716" height="66.6716" filterUnits="userSpaceOnUse" color-interpolation-filters="sRGB">
<feFlood flood-opacity="0" result="BackgroundImageFix"/>
<feBlend mode="normal" in="SourceGraphic" in2="BackgroundImageFix" result="shape"/>
<feColorMatrix in="SourceAlpha" type="matrix" values="0 0 0 0 0 0 0 0 0 0 0 0 0 0 0 0 0 0 127 0" result="hardAlpha"/>
<feOffset dy="1"/>
<feGaussianBlur stdDeviation="2"/>
<feComposite in2="hardAlpha" operator="arithmetic" k2="-1" k3="1"/>
<feColorMatrix type="matrix" values="0 0 0 0 0.816111 0 0 0 0 0.902108 0 0 0 0 0.941667 0 0 0 1 0"/>
<feBlend mode="normal" in2="shape" result="effect1_innerShadow_156_1057"/>
</filter>
<linearGradient id="paint0_linear_156_1057" x1="90.0984" y1="236.789" x2="126.1" y2="236.789" gradientUnits="userSpaceOnUse">
<stop stop-color="#2C62D6"/>
<stop offset="0.25" stop-color="#2C62D6"/>
<stop offset="0.8" stop-color="#48B0E0"/>
<stop offset="1" stop-color="#48B0E0"/>
</linearGradient>
<linearGradient id="paint1_linear_156_1057" x1="5359.92" y1="43133.5" x2="34826.8" y2="43133.5" gradientUnits="userSpaceOnUse">
<stop stop-color="#2C62D6"/>
<stop offset="0.25" stop-color="#2C62D6"/>
<stop offset="0.8" stop-color="#48B0E0"/>
<stop offset="1" stop-color="#48B0E0"/>
</linearGradient>
<linearGradient id="paint2_linear_156_1057" x1="300.377" y1="144.131" x2="317.421" y2="144.131" gradientUnits="userSpaceOnUse">
<stop stop-color="#2C62D6"/>
<stop offset="0.25" stop-color="#2C62D6"/>
<stop offset="0.8" stop-color="#48B0E0"/>
<stop offset="1" stop-color="#48B0E0"/>
</linearGradient>
<linearGradient id="paint3_linear_156_1057" x1="2795.19" y1="20452" x2="16745.2" y2="20452" gradientUnits="userSpaceOnUse">
<stop stop-color="#2C62D6"/>
<stop offset="0.25" stop-color="#2C62D6"/>
<stop offset="0.8" stop-color="#48B0E0"/>
<stop offset="1" stop-color="#48B0E0"/>
</linearGradient>
<clipPath id="clip0_156_1057">
<rect width="341.105" height="230.674" fill="white" transform="translate(20.9473 0.662109)"/>
</clipPath>
</defs>
</svg>
