<svg width="375" height="813" viewBox="0 0 375 813" fill="none" xmlns="http://www.w3.org/2000/svg">
<path d="M0.000175387 0.673828H375V406.674H187.628L0 204.639L0.000175387 0.673828Z" fill="#FBFBFB"/>
<path d="M0 203.674L188.594 404.152L375 407.126V812.674H0V203.674Z" fill="#F3F5FB"/>
<g filter="url(#filter0_i_0_1)">
<circle cx="300" cy="222.674" r="32.8358" fill="white"/>
</g>
<path d="M214.62 164.828H369.494V87.7899H214.62V164.828Z" fill="white"/>
<path d="M351.931 98.9664H296.847V154.051H351.931V98.9664Z" fill="#3F3D56"/>
<path d="M137.582 189.975H93.6741V239.072H137.582V189.975Z" fill="#CCCCCC"/>
<path d="M116.207 299.039L115.453 309.351C115.418 309.818 115.484 310.286 115.646 310.726C115.808 311.165 116.062 311.564 116.391 311.897C116.72 312.23 117.116 312.489 117.553 312.656C117.99 312.824 118.458 312.896 118.925 312.867L124.222 312.546C124.467 312.531 124.707 312.463 124.922 312.345C125.138 312.227 125.326 312.063 125.471 311.865C125.616 311.667 125.716 311.439 125.764 311.198C125.811 310.956 125.805 310.708 125.745 310.469L122.805 298.709L116.207 299.039Z" fill="#E6E6E6"/>
<path d="M160.512 305.137C166.746 306.595 171.199 308.668 174.124 311.473C175.166 312.465 176.529 313.049 177.966 313.12C179.801 313.216 181.301 313.011 182.428 312.507H182.428C182.717 312.38 182.967 312.177 183.151 311.921C183.335 311.665 183.447 311.364 183.476 311.05C183.51 310.731 183.458 310.408 183.326 310.115C183.193 309.823 182.985 309.571 182.722 309.387L167.938 298.867L161.657 301.379L160.193 302.844C160.034 303.003 159.914 303.196 159.843 303.409C159.772 303.621 159.751 303.848 159.782 304.07C159.813 304.292 159.895 304.504 160.021 304.689C160.148 304.874 160.316 305.027 160.512 305.137H160.512Z" fill="#E6E6E6"/>
<path d="M141.327 136.765L99.0668 136.373C99.1731 130.218 100.605 124.174 103.736 118.765C105.792 115.213 105.747 111.347 105.252 108.09C104.487 103.063 106.265 97.9209 110.216 94.7213C113.236 92.2719 117.046 91.0111 120.931 91.1763L121.751 91.2104C124.424 91.3215 127.026 92.1023 129.319 93.4812C131.612 94.86 133.521 96.7927 134.872 99.1018C136.245 101.567 136.799 104.405 136.453 107.205C136.185 109.84 136.826 112.502 138.325 115.189C140.912 121.09 141.472 128.64 141.327 136.765Z" fill="#2F2E41"/>
<path d="M169.602 299.416L161.308 301.579L120.919 213.59L123.443 299.416H115.149C106.287 259.037 90.2854 212.436 97.4794 197.723L140.392 195.199L169.602 299.416Z" fill="#6C63FF"/>
<path d="M120.558 121.995C126.732 121.995 131.737 116.99 131.737 110.816C131.737 104.642 126.732 99.6366 120.558 99.6366C114.385 99.6366 109.38 104.642 109.38 110.816C109.38 116.99 114.385 121.995 120.558 121.995Z" fill="#FFB9B9"/>
<path d="M130.295 131.37L111.904 130.289C113.706 126.152 114.426 122.168 113.707 118.388H127.41C127.379 121.291 128.823 126.311 130.295 131.37Z" fill="#FFB9B9"/>
<path d="M141.835 198.444L101.446 201.329L105.593 129.748L112.625 127.764L120.558 129.567L128.492 125.6L133.54 127.404L141.835 198.444Z" fill="#6C63FF"/>
<path d="M108.298 250.012L80.7109 243.701C88.9139 216.499 103.692 154.268 98.9219 132.092L113.346 125.601L108.298 250.012Z" fill="#E6E6E6"/>
<path d="M94.955 171.398L84.4973 164.907L93.4159 138.786C94.4106 136.091 96.3159 133.828 98.8023 132.389L101.807 130.649L100.004 156.974L94.955 171.398Z" fill="#E6E6E6"/>
<path d="M165.815 244.062C157.108 249.099 135.344 251.907 125.787 248.389C125.084 223.811 123.705 154.291 128.131 124.879L143.998 131.37L142.556 150.843C134.97 167.502 156.997 225.522 165.815 244.062Z" fill="#E6E6E6"/>
<path d="M164.553 168.153L154.816 164.907L141.835 150.122L143.998 131.37L165.635 161.662L164.553 168.153Z" fill="#E6E6E6"/>
<path d="M134.039 182.189C134.198 182.888 134.628 183.495 135.235 183.878C135.841 184.261 136.575 184.387 137.274 184.23L145.539 182.358L144.345 177.082L136.08 178.954C135.38 179.112 134.772 179.542 134.389 180.149C134.007 180.755 133.881 181.489 134.039 182.189V182.189Z" fill="#FFB9B9"/>
<path d="M130.295 107.931C124.086 105.377 117.953 105.193 111.904 107.57L109.38 98.5547H132.459L130.295 107.931Z" fill="#2F2E41"/>
<path d="M141.474 176.086L146.162 184.741C154.047 182.542 160.881 175.609 167.438 167.432L165.635 161.662L154.456 164.547L141.474 176.086Z" fill="#E6E6E6"/>
<path d="M138.048 158.236H136.606C136.606 137.835 132.405 123.617 128.312 123.617L127.951 122.175C131.622 122.175 133.963 128.092 135.279 133.056C137.065 139.786 138.048 148.728 138.048 158.236Z" fill="#3F3D56"/>
<path d="M104.872 153.187H103.429C103.429 134.503 107.659 122.896 113.887 122.896L113.527 124.338C109.219 124.338 104.872 133.259 104.872 153.187Z" fill="#3F3D56"/>
<path d="M137.327 162.203C139.319 162.203 140.933 160.588 140.933 158.597C140.933 156.605 139.319 154.99 137.327 154.99C135.335 154.99 133.721 156.605 133.721 158.597C133.721 160.588 135.335 162.203 137.327 162.203Z" fill="#3F3D56"/>
<path d="M99.1021 161.842H97.6597C97.6597 156.672 100.572 152.466 104.151 152.466V153.909C101.367 153.909 99.1021 157.468 99.1021 161.842Z" fill="#3F3D56"/>
<path d="M110.642 161.842H109.199C109.199 157.468 106.934 153.909 104.151 153.909V152.466C107.73 152.466 110.642 156.672 110.642 161.842Z" fill="#3F3D56"/>
<path d="M109.92 163.645C110.717 163.645 111.363 162.999 111.363 162.203C111.363 161.406 110.717 160.76 109.92 160.76C109.124 160.76 108.478 161.406 108.478 162.203C108.478 162.999 109.124 163.645 109.92 163.645Z" fill="#3F3D56"/>
<path d="M98.3809 163.645C99.1776 163.645 99.8234 162.999 99.8234 162.203C99.8234 161.406 99.1776 160.76 98.3809 160.76C97.5843 160.76 96.9385 161.406 96.9385 162.203C96.9385 162.999 97.5843 163.645 98.3809 163.645Z" fill="#3F3D56"/>
<path d="M80.3502 148.939L89.3501 150.546L109.92 179.795L98.9922 177.223L80.3502 148.939Z" fill="#6C63FF"/>
<path d="M78.7539 148.58C78.6168 148.583 78.4827 148.621 78.3658 148.693C78.2488 148.765 78.1532 148.866 78.089 148.988C78.0248 149.109 77.9944 149.245 78.0009 149.382C78.0073 149.519 78.0505 149.652 78.1259 149.766L97.354 178.94C97.4613 179.103 97.627 179.219 97.8171 179.264L106.763 181.368C106.914 181.404 107.072 181.393 107.217 181.336C107.361 181.28 107.485 181.181 107.571 181.053C107.658 180.924 107.704 180.773 107.703 180.618C107.701 180.463 107.653 180.312 107.563 180.185L86.4522 150.167C86.3949 150.086 86.3221 150.016 86.2379 149.962C86.1537 149.909 86.0597 149.872 85.9614 149.855L78.8982 148.593C78.8506 148.585 78.8023 148.581 78.7539 148.58V148.58Z" fill="#3F3D56"/>
<path d="M90.7485 169.439L91.2829 174.822L99.7158 173.985C100.43 173.914 101.086 173.563 101.541 173.008C101.995 172.453 102.211 171.74 102.14 171.027C102.069 170.313 101.718 169.656 101.163 169.202C100.608 168.747 99.8953 168.531 99.1815 168.602L90.7485 169.439Z" fill="#FFB9B9"/>
<path d="M83.4156 168.816C83.4279 170.651 84.165 172.408 85.4665 173.702C86.7679 174.996 88.5281 175.724 90.3636 175.726H91.7502L92.7597 167.313L84.4014 164.304L83.4156 168.816Z" fill="#E6E6E6"/>
<g filter="url(#filter1_f_0_1)">
<path d="M240.565 313.004H137.582V313.449H240.565V313.004Z" fill="#3F3D56"/>
</g>
<circle cx="93.7496" cy="305.173" r="57.0777" fill="white"/>
<defs>
<filter id="filter0_i_0_1" x="267.164" y="189.838" width="65.6716" height="66.6716" filterUnits="userSpaceOnUse" color-interpolation-filters="sRGB">
<feFlood flood-opacity="0" result="BackgroundImageFix"/>
<feBlend mode="normal" in="SourceGraphic" in2="BackgroundImageFix" result="shape"/>
<feColorMatrix in="SourceAlpha" type="matrix" values="0 0 0 0 0 0 0 0 0 0 0 0 0 0 0 0 0 0 127 0" result="hardAlpha"/>
<feOffset dy="1"/>
<feGaussianBlur stdDeviation="2"/>
<feComposite in2="hardAlpha" operator="arithmetic" k2="-1" k3="1"/>
<feColorMatrix type="matrix" values="0 0 0 0 0.816111 0 0 0 0 0.902108 0 0 0 0 0.941667 0 0 0 1 0"/>
<feBlend mode="normal" in2="shape" result="effect1_innerShadow_0_1"/>
</filter>
<filter id="filter1_f_0_1" x="133.582" y="309.004" width="110.983" height="8.44409" filterUnits="userSpaceOnUse" color-interpolation-filters="sRGB">
<feFlood flood-opacity="0" result="BackgroundImageFix"/>
<feBlend mode="normal" in="SourceGraphic" in2="BackgroundImageFix" result="shape"/>
<feGaussianBlur stdDeviation="2" result="effect1_foregroundBlur_0_1"/>
</filter>
</defs>
</svg>
