<svg width="154" height="154" viewBox="0 0 154 154" fill="none" xmlns="http://www.w3.org/2000/svg">
<path d="M68.75 88.5499L57.2 76.9999L53.35 80.8499L68.75 96.2499L101.75 63.2499L97.9 59.3999L68.75 88.5499Z" fill="#3E6ED7"/>
<path d="M134.365 70.5834C131.413 43.8259 110.174 22.5867 83.4167 19.6351V6.41675H70.5833V19.6351C43.8258 22.5867 22.5867 43.8259 19.635 70.5834H6.41669V83.4167H19.635C22.5867 110.174 43.8258 131.413 70.5833 134.365V147.583H83.4167V134.365C110.174 131.413 131.413 110.174 134.365 83.4167H147.583V70.5834H134.365ZM77 121.917C52.1675 121.917 32.0834 101.833 32.0834 77.0001C32.0834 52.1676 52.1675 32.0834 77 32.0834C101.833 32.0834 121.917 52.1676 121.917 77.0001C121.917 101.833 101.833 121.917 77 121.917Z" fill="#3E6ED7"/>
<path d="M132.5 116L134.526 121.474L140 123.5L134.526 125.526L132.5 131L130.474 125.526L125 123.5L130.474 121.474L132.5 116Z" fill="#3E6ED7"/>
<path d="M14 104L16.4308 110.569L23 113L16.4308 115.431L14 122L11.5692 115.431L5 113L11.5692 110.569L14 104Z" fill="#3E6ED7"/>
<path d="M136.5 6L139.606 14.394L148 17.5L139.606 20.606L136.5 29L133.394 20.606L125 17.5L133.394 14.394L136.5 6Z" fill="#3E6ED7"/>
</svg>
