<svg width="157" height="156" viewBox="0 0 157 156" fill="none" xmlns="http://www.w3.org/2000/svg">
<g filter="url(#filter0_f_0_1294)">
<circle cx="78.5458" cy="78.3773" r="44.5614" fill="#D8EBFF"/>
</g>
<circle cx="94.7496" cy="62.1735" r="60.7653" fill="#EFF2F7"/>
<circle cx="94.7496" cy="62.1734" r="57.0777" fill="white"/>
<path d="M123.414 61.244H123.401C122.731 61.2534 122.092 61.527 121.623 62.0054C121.153 62.4838 120.891 63.1282 120.894 63.7987C120.894 65.2436 121.963 66.3034 123.411 66.3034C123.743 66.3082 124.073 66.2464 124.38 66.1217C124.688 65.997 124.968 65.8119 125.203 65.5772C125.438 65.3426 125.624 65.0632 125.75 64.7556C125.876 64.4479 125.939 64.1182 125.935 63.7859C125.924 62.4065 124.766 61.244 123.414 61.244Z" fill="#2D65D6"/>
<path d="M128.771 58.5521C127.394 57.1265 125.509 56.3032 123.528 56.2614H123.386C119.36 56.2614 115.941 59.6975 115.919 63.7656C115.916 65.7405 116.691 67.6371 118.076 69.0438C119.461 70.4505 121.344 71.254 123.317 71.2799H123.371C124.27 71.2821 125.163 71.1266 126.008 70.8206C124.75 76.3293 122.042 81.4772 118.312 85.7307C116.764 87.4895 115.056 89.1011 113.211 90.5448C110.332 92.819 107.154 94.6878 103.768 96.0991C100.394 97.5114 96.8128 98.3678 93.1648 98.6353C92.2555 98.698 91.3249 98.7337 90.3857 98.7337C87.5795 98.7337 84.6978 98.4156 82.0741 97.564C80.7741 97.1498 79.5297 96.5778 78.3686 95.8609C77.2041 95.1383 76.1572 94.2411 75.2646 93.2007C74.5708 92.3908 74.0339 91.4587 73.6812 90.452C73.3357 89.4623 73.1607 88.4209 73.1639 87.3724C73.1693 85.2537 73.8415 83.1905 75.085 81.4757C75.9301 80.3075 76.9905 79.3162 78.1363 78.3719C79.2821 77.4276 80.5107 76.5347 81.6807 75.5533C82.6137 74.7815 83.4703 73.9217 84.2389 72.9858C84.7883 72.3053 85.2748 71.5763 85.6926 70.8077V74.8573C85.693 75.8827 86.1002 76.8661 86.8247 77.5912C87.5492 78.3163 88.5317 78.7238 89.5563 78.7242H93.3886C94.4132 78.7238 95.3957 78.3163 96.1202 77.5912C96.8447 76.8661 97.2518 75.8827 97.2522 74.8573V72.5037C97.2573 72.2374 97.1565 71.9799 96.972 71.788C96.7874 71.5961 96.5342 71.4854 96.2681 71.4803C96.002 71.4752 95.7448 71.5761 95.553 71.7608C95.3613 71.9455 95.2507 72.1989 95.2456 72.4652V74.8573C95.2473 75.1055 95.1988 75.3515 95.1031 75.5804C94.9619 75.9127 94.7278 76.197 94.4289 76.3992C94.1229 76.6069 93.7612 76.7173 93.3914 76.7159H89.5591C89.3111 76.7176 89.0653 76.6691 88.8365 76.5732C88.4996 76.4315 88.2118 76.1936 88.009 75.8892C87.8062 75.5848 87.6975 75.2274 87.6964 74.8615V68.5612C87.6964 68.3096 87.5966 68.0683 87.4188 67.8904C87.2411 67.7125 87 67.6126 86.7487 67.6126H80.4593C80.1546 67.6131 79.8545 67.5384 79.5855 67.3951C79.3165 67.2518 79.087 67.0443 78.9173 66.791C78.7096 66.4847 78.5993 66.1227 78.6009 65.7526V61.9184C78.5992 61.6698 78.6476 61.4233 78.7434 61.1938C78.8846 60.8616 79.1187 60.5773 79.4175 60.3751C79.7241 60.1671 80.0862 60.0568 80.4565 60.0584H82.6456C82.9077 60.0615 83.161 59.9638 83.3533 59.7855C83.5455 59.6071 83.662 59.3617 83.6788 59.0999C83.6858 58.9645 83.6651 58.8291 83.6181 58.702C83.5711 58.5749 83.4987 58.4586 83.4054 58.3604C83.3121 58.2622 83.1997 58.184 83.0752 58.1306C82.9507 58.0773 82.8166 58.0499 82.6812 58.05H80.4593C79.4343 58.05 78.4512 58.4576 77.7263 59.1831C77.0015 59.9085 76.5943 60.8925 76.5943 61.9184V65.7483C76.5941 66.2563 76.6939 66.7593 76.8881 67.2287C77.0823 67.698 77.367 68.1244 77.726 68.4836C78.085 68.8427 78.5111 69.1275 78.9801 69.3217C79.4491 69.5159 79.9518 69.6156 80.4593 69.6153H84.9401C84.4949 70.5431 83.9409 71.4146 83.2898 72.2113C82.5703 73.089 81.7685 73.8957 80.8955 74.6205C79.7696 75.5648 78.5425 76.4563 77.3596 77.4319C76.1767 78.4076 75.0337 79.4659 74.0959 80.7597C72.7019 82.6828 71.9485 84.9965 71.9425 87.3724C71.9393 88.5589 72.1378 89.7373 72.5297 90.8571C72.9323 92.0063 73.5451 93.0704 74.3368 93.9952C75.31 95.1295 76.451 96.1079 77.7202 96.8965C79.5843 98.0633 81.6679 98.825 83.8242 99.2985C85.9799 99.7503 88.1777 99.9698 90.38 99.9533C91.3491 99.9533 92.3069 99.9162 93.2418 99.8534C97.0207 99.5771 100.73 98.6903 104.226 97.2274C107.714 95.7744 110.988 93.8509 113.957 91.5104C115.862 90.0202 117.626 88.3571 119.226 86.5423C123.299 81.8994 126.198 76.2295 127.4 70.1516C128.351 69.5583 129.156 68.7588 129.756 67.8122C130.356 66.8656 130.736 65.7961 130.868 64.6828C131 63.5694 130.879 62.4407 130.517 61.38C130.154 60.3194 129.557 59.3539 128.771 58.555V58.5521ZM126.196 66.5129C125.833 66.8806 125.399 67.1719 124.921 67.3696C124.444 67.5673 123.931 67.6674 123.414 67.664C121.209 67.664 119.542 66.0022 119.536 63.8013C119.531 62.77 119.934 61.7787 120.657 61.0439C121.38 60.3091 122.364 59.8907 123.394 59.8801H123.414C123.923 59.8821 124.426 59.9852 124.895 60.1835C125.363 60.3819 125.788 60.6715 126.143 61.0355C126.874 61.7591 127.292 62.7402 127.308 63.7685C127.315 64.277 127.22 64.7817 127.029 65.253C126.838 65.7243 126.555 66.1527 126.196 66.5129Z" fill="#2D65D6"/>
<path d="M106.046 60.4132C105.75 59.7128 105.254 59.1153 104.62 58.6952C103.987 58.2751 103.244 58.0511 102.483 58.0511H97.2531V52.8106C97.2533 52.3026 97.1534 51.7995 96.9592 51.3302C96.765 50.8609 96.4803 50.4344 96.1213 50.0753C95.7624 49.7161 95.3362 49.4313 94.8672 49.2372C94.3982 49.043 93.8955 48.9432 93.388 48.9436H89.5585C89.0509 48.943 88.548 49.0427 88.0789 49.2368C87.6097 49.4309 87.1834 49.7156 86.8242 50.0748C86.4651 50.4339 86.1803 50.8604 85.986 51.3299C85.7917 51.7993 85.6918 52.3025 85.692 52.8106V58.9441C85.692 59.2089 85.7971 59.4628 85.9842 59.6501C86.1713 59.8373 86.4251 59.9425 86.6896 59.9425C86.73 59.9447 86.7704 59.9447 86.8108 59.9425H86.8977C87.3533 59.9633 87.8065 60.02 88.2531 60.1123C88.9673 60.2503 89.6648 60.464 90.3338 60.7499C90.9308 61.0052 91.4965 61.3282 92.0198 61.7127C93.173 62.5651 94.0402 63.748 94.5067 65.1047C94.8826 66.2194 95.0658 67.3901 95.0483 68.5665C95.0483 68.6936 95.0734 68.8195 95.122 68.9369C95.1707 69.0544 95.242 69.161 95.3318 69.2509C95.4217 69.3407 95.5284 69.4119 95.6458 69.4604C95.7632 69.5089 95.889 69.5338 96.016 69.5336H96.0958C96.2217 69.5884 96.3576 69.6165 96.4949 69.6164H102.481C102.989 69.6182 103.493 69.5196 103.963 69.3261C104.434 69.1326 104.861 68.848 105.221 68.4887C105.582 68.1294 105.867 67.7025 106.062 67.2324C106.257 66.7623 106.357 66.2583 106.357 65.7494V61.9195C106.355 61.4017 106.249 60.8895 106.046 60.4132ZM104.345 65.7494C104.346 65.9976 104.298 66.2435 104.202 66.4726C104.061 66.805 103.827 67.0896 103.528 67.2927C103.221 67.4998 102.859 67.6101 102.489 67.6094H96.9623C96.9132 66.7897 96.7805 65.9772 96.5661 65.1845C96.3459 64.3655 96.0191 63.579 95.5942 62.8452C94.9501 61.7458 94.0795 60.7961 93.0402 60.0595C92.3757 59.5867 91.6582 59.1932 90.9025 58.887C90.0207 58.5314 89.1012 58.2778 88.1618 58.131C87.9951 58.1053 87.8426 58.0854 87.7058 58.0697V52.8106C87.7039 52.5623 87.7524 52.3163 87.8483 52.0874C87.9899 51.7501 88.2276 51.4621 88.5318 51.2591C88.8359 51.0562 89.193 50.9474 89.5585 50.9463H93.388C93.6925 50.946 93.9923 51.0208 94.261 51.1641C94.5297 51.3074 94.759 51.5148 94.9286 51.7679C95.1362 52.0742 95.2464 52.4361 95.245 52.8063V58.9569C95.245 58.9883 95.245 59.0197 95.245 59.051C95.245 59.0838 95.245 59.1152 95.245 59.1466C95.245 59.2651 95.2683 59.3825 95.3137 59.4919C95.359 59.6014 95.4255 59.7008 95.5093 59.7846C95.5931 59.8683 95.6926 59.9347 95.802 59.9799C95.9114 60.0251 96.0287 60.0483 96.1471 60.0481H102.488C102.736 60.0462 102.982 60.0947 103.21 60.1907C103.543 60.332 103.827 60.5663 104.03 60.8654C104.237 61.1726 104.347 61.5348 104.346 61.9053L104.345 65.7494Z" fill="#48B0E0"/>
<path d="M59.9936 50.4965C61.6622 46.3829 64.1216 42.6372 67.2321 39.4719L67.4073 39.295V28.54C67.4073 27.9953 67.3001 27.456 67.0918 26.9528C66.8836 26.4497 66.5783 25.9925 66.1934 25.6074C65.8085 25.2224 65.3516 24.917 64.8488 24.7087C64.346 24.5004 63.8071 24.3932 63.2629 24.3934H62.7256C62.1815 24.3932 61.6427 24.5004 61.14 24.7087C60.6372 24.917 60.1804 25.2224 59.7957 25.6075C59.4109 25.9926 59.1058 26.4498 58.8976 26.9529C58.6895 27.4561 58.5825 27.9954 58.5826 28.54V54.7614C58.9579 53.31 59.4292 51.8852 59.9936 50.4965Z" fill="#2D65D6"/>
<path d="M115.337 66.7543C114.496 72.4647 111.637 77.6841 107.28 81.4653C102.922 85.2465 97.3549 87.3389 91.5877 87.3628C91.5593 87.3645 91.5307 87.3645 91.5022 87.3628C90.3493 87.3836 89.2506 87.8566 88.4426 88.6799C87.6346 89.5033 87.1819 90.6113 87.1819 91.7654C87.1819 92.9195 87.6346 94.0275 88.4426 94.8508C89.2506 95.6742 90.3493 96.1472 91.5022 96.168C106.498 96.168 119.151 86.1176 123.108 72.3843C121.401 72.3219 119.752 71.7535 118.368 70.7512C116.984 69.7488 115.929 68.3577 115.337 66.7543Z" fill="url(#paint0_linear_0_1294)"/>
<path d="M115.435 60.5222C116.079 58.9389 117.178 57.5827 118.594 56.626C120.009 55.6693 121.677 55.1552 123.384 55.149C119.822 41.0605 107.2 30.5864 92.0833 30.3154C91.8852 30.3154 91.6828 30.3154 91.4847 30.3154C73.1128 30.3154 58.2253 45.4466 58.5873 63.907C58.5873 63.937 58.5873 63.9669 58.5873 63.9983V73.4724C58.5768 74.0575 58.6829 74.6387 58.8993 75.1822C59.1157 75.7258 59.4381 76.2207 59.8478 76.6381C60.2574 77.0556 60.746 77.3872 61.2851 77.6135C61.8242 77.8398 62.403 77.9564 62.9876 77.9564C63.5722 77.9564 64.1509 77.8398 64.69 77.6135C65.2291 77.3872 65.7177 77.0556 66.1274 76.6381C66.537 76.2207 66.8595 75.7258 67.0759 75.1822C67.2923 74.6387 67.3983 74.0575 67.3878 73.4724V64.8613C67.4022 64.7191 67.4094 64.5763 67.4092 64.4334C67.4092 64.4034 67.4092 64.382 67.4092 64.3578C67.3921 63.9883 67.3821 63.6189 67.3821 63.2466C67.3816 60.0784 68.0046 56.9411 69.2156 54.014C70.4267 51.0868 72.202 48.4271 74.4402 46.1867C76.6784 43.9463 79.3356 42.1691 82.2602 40.9567C85.1847 39.7443 88.3192 39.1204 91.4847 39.1206C93.1885 39.1222 94.8879 39.2957 96.5569 39.6383C101.116 40.5741 105.3 42.8284 108.591 46.1219C111.881 49.4154 114.134 53.6031 115.069 58.1658C115.23 58.956 115.352 59.7415 115.435 60.5222Z" fill="url(#paint1_linear_0_1294)"/>
<defs>
<filter id="filter0_f_0_1294" x="0.984375" y="0.815918" width="155.123" height="155.123" filterUnits="userSpaceOnUse" color-interpolation-filters="sRGB">
<feFlood flood-opacity="0" result="BackgroundImageFix"/>
<feBlend mode="normal" in="SourceGraphic" in2="BackgroundImageFix" result="shape"/>
<feGaussianBlur stdDeviation="16.5" result="effect1_foregroundBlur_0_1294"/>
</filter>
<linearGradient id="paint0_linear_0_1294" x1="87.0984" y1="81.4633" x2="123.1" y2="81.4633" gradientUnits="userSpaceOnUse">
<stop stop-color="#2C62D6"/>
<stop offset="0.25" stop-color="#2C62D6"/>
<stop offset="0.8" stop-color="#48B0E0"/>
<stop offset="1" stop-color="#48B0E0"/>
</linearGradient>
<linearGradient id="paint1_linear_0_1294" x1="5356.92" y1="42978.2" x2="34823.8" y2="42978.2" gradientUnits="userSpaceOnUse">
<stop stop-color="#2C62D6"/>
<stop offset="0.25" stop-color="#2C62D6"/>
<stop offset="0.8" stop-color="#48B0E0"/>
<stop offset="1" stop-color="#48B0E0"/>
</linearGradient>
</defs>
</svg>
