<svg width="343" height="232" viewBox="0 0 343 232" fill="none" xmlns="http://www.w3.org/2000/svg">
<g clip-path="url(#clip0_0_1240)">
<path d="M105.35 107.311H61.4427V156.408H105.35V107.311Z" fill="#CCCCCC"/>
<path d="M191.666 230.252H169.313L166.918 211.093H194.061L191.666 230.252Z" fill="#53ABDD"/>
<path d="M83.9755 216.375L83.2212 226.687C83.1871 227.154 83.2531 227.622 83.415 228.061C83.5768 228.501 83.8307 228.9 84.1595 229.233C84.4884 229.566 84.8847 229.825 85.3218 229.992C85.7589 230.16 86.2267 230.231 86.6939 230.203L91.9907 229.882C92.2361 229.867 92.4753 229.799 92.6911 229.681C92.907 229.563 93.0942 229.399 93.2396 229.201C93.385 229.003 93.4849 228.775 93.5322 228.534C93.5796 228.292 93.5732 228.043 93.5136 227.805L90.5734 216.045L83.9755 216.375Z" fill="#E6E6E6"/>
<path d="M128.281 222.473C134.515 223.931 138.968 226.004 141.893 228.809C142.935 229.8 144.298 230.385 145.735 230.456C147.569 230.552 149.069 230.347 150.197 229.843H150.197C150.486 229.716 150.735 229.513 150.92 229.257C151.104 229.001 151.216 228.7 151.245 228.386C151.279 228.066 151.227 227.744 151.095 227.451C150.962 227.159 150.754 226.907 150.491 226.722L135.706 216.203L129.426 218.715L127.961 220.18C127.803 220.339 127.683 220.532 127.612 220.745C127.54 220.957 127.519 221.184 127.55 221.406C127.581 221.628 127.663 221.84 127.79 222.025C127.917 222.21 128.085 222.363 128.281 222.473H128.281Z" fill="#E6E6E6"/>
<path d="M109.096 54.1007L66.8355 53.7094C66.9418 47.5541 68.3739 41.5098 71.5044 36.101C73.5603 32.5486 73.5159 28.6827 73.0205 25.4256C72.2558 20.3994 74.0339 15.2568 77.9848 12.0573C81.0042 9.60789 84.815 8.34703 88.6994 8.5122L89.52 8.54638C92.1929 8.65747 94.7951 9.43827 97.0877 10.8171C99.3802 12.196 101.29 14.1286 102.641 16.4377C104.014 18.9028 104.567 21.7406 104.222 24.541C103.954 27.176 104.595 29.8378 106.094 32.5249C108.681 38.4256 109.241 45.9762 109.096 54.1007Z" fill="#2F2E41"/>
<path d="M137.37 216.751L129.076 218.915L88.6877 130.926L91.212 216.751H82.9179C74.0552 176.373 58.054 129.772 65.248 115.059L108.161 112.535L137.37 216.751Z" fill="#6C63FF"/>
<path d="M88.3272 39.3305C94.5011 39.3305 99.5061 34.3255 99.5061 28.1515C99.5061 21.9775 94.5011 16.9725 88.3272 16.9725C82.1532 16.9725 77.1482 21.9775 77.1482 28.1515C77.1482 34.3255 82.1532 39.3305 88.3272 39.3305Z" fill="#FFB9B9"/>
<path d="M98.0637 48.7064L79.6725 47.6245C81.4749 43.4877 82.1948 39.5042 81.4755 35.7244H95.1788C95.1477 38.6265 96.5919 43.6467 98.0637 48.7064Z" fill="#FFB9B9"/>
<path d="M109.603 115.78L69.2149 118.665L73.3618 47.0837L80.3938 45.1003L88.3271 46.9033L96.2604 42.9364L101.309 44.7398L109.603 115.78Z" fill="#6C63FF"/>
<path d="M76.0664 167.348L48.4796 161.037C56.6825 133.835 71.4606 71.6044 66.6905 49.4275L81.1149 42.9365L76.0664 167.348Z" fill="#E6E6E6"/>
<path d="M62.7237 88.7342L52.266 82.2432L61.1846 56.1224C62.1793 53.427 64.0846 51.164 66.571 49.7245L69.5753 47.9851L67.7723 74.3097L62.7237 88.7342Z" fill="#E6E6E6"/>
<path d="M133.584 161.398C124.877 166.435 103.112 169.243 93.556 165.725C92.8528 141.147 91.4737 71.6271 95.9 42.2153L111.767 48.7063L110.324 68.1794C102.739 84.8375 124.766 142.858 133.584 161.398Z" fill="#E6E6E6"/>
<path d="M132.322 85.4888L122.585 82.2433L109.603 67.458L111.767 48.7062L133.404 78.9977L132.322 85.4888Z" fill="#E6E6E6"/>
<path d="M101.808 99.5249C101.967 100.224 102.397 100.831 103.003 101.214C103.61 101.596 104.343 101.723 105.043 101.565L113.308 99.6937L112.113 94.4182L103.848 96.2896C103.149 96.4481 102.541 96.878 102.158 97.4847C101.775 98.0914 101.649 98.8253 101.808 99.5249Z" fill="#FFB9B9"/>
<path d="M98.0637 25.2665C91.8544 22.7133 85.7219 22.5285 79.6725 24.9059L77.1482 15.8906H100.227L98.0637 25.2665Z" fill="#2F2E41"/>
<path d="M109.243 93.4221L113.931 102.077C121.816 99.8776 128.649 92.9445 135.207 84.7675L133.404 78.9977L122.225 81.8826L109.243 93.4221Z" fill="#E6E6E6"/>
<path d="M105.817 75.5719H104.374C104.374 55.1706 100.174 40.9532 96.0803 40.9532L95.7197 39.5107C99.3907 39.5107 101.731 45.4279 103.048 50.392C104.834 57.1216 105.817 66.0639 105.817 75.5719Z" fill="#3F3D56"/>
<path d="M72.6405 70.5233H71.1981C71.1981 51.8389 75.4277 40.2319 81.6558 40.2319L81.2952 41.6744C76.9872 41.6744 72.6405 50.5948 72.6405 70.5233Z" fill="#3F3D56"/>
<path d="M105.096 79.5386C107.087 79.5386 108.702 77.9241 108.702 75.9325C108.702 73.9409 107.087 72.3264 105.096 72.3264C103.104 72.3264 101.49 73.9409 101.49 75.9325C101.49 77.9241 103.104 79.5386 105.096 79.5386Z" fill="#3F3D56"/>
<path d="M66.8707 79.178H65.4283C65.4283 74.0081 68.3401 69.8021 71.9193 69.8021V71.2446C69.1355 71.2446 66.8707 74.8035 66.8707 79.178Z" fill="#3F3D56"/>
<path d="M78.4103 79.178H76.9679C76.9679 74.8035 74.7031 71.2446 71.9193 71.2446V69.8021C75.4985 69.8021 78.4103 74.0082 78.4103 79.178Z" fill="#3F3D56"/>
<path d="M77.6891 80.9811C78.4857 80.9811 79.1315 80.3353 79.1315 79.5386C79.1315 78.742 78.4857 78.0962 77.6891 78.0962C76.8925 78.0962 76.2466 78.742 76.2466 79.5386C76.2466 80.3353 76.8925 80.9811 77.6891 80.9811Z" fill="#3F3D56"/>
<path d="M66.1495 80.9811C66.9462 80.9811 67.592 80.3353 67.592 79.5386C67.592 78.742 66.9462 78.0962 66.1495 78.0962C65.3529 78.0962 64.7071 78.742 64.7071 79.5386C64.7071 80.3353 65.3529 80.9811 66.1495 80.9811Z" fill="#3F3D56"/>
<path d="M48.1189 66.2745L57.1188 67.8816L77.6891 97.1304L66.7609 94.5591L48.1189 66.2745Z" fill="#6C63FF"/>
<path d="M46.5226 65.9164C46.3855 65.9184 46.2514 65.9573 46.1344 66.0289C46.0175 66.1006 45.9219 66.2023 45.8577 66.3235C45.7935 66.4447 45.763 66.5809 45.7695 66.7179C45.776 66.8549 45.8192 66.9877 45.8945 67.1023L65.1226 96.2761C65.2299 96.4392 65.3957 96.5549 65.5857 96.5996L74.532 98.7044C74.6828 98.7399 74.8409 98.7287 74.9852 98.6723C75.1296 98.6159 75.2533 98.517 75.3401 98.3886C75.4269 98.2602 75.4726 98.1085 75.4712 97.9535C75.4698 97.7986 75.4213 97.6477 75.3321 97.521L54.2208 67.5034C54.1636 67.4216 54.0908 67.3519 54.0066 67.2983C53.9224 67.2447 53.8284 67.2082 53.7301 67.1909L46.6668 65.9294C46.6192 65.9209 46.571 65.9165 46.5226 65.9164Z" fill="#3F3D56"/>
<path d="M58.5172 86.7754L59.0515 92.1581L67.4844 91.3211C68.1982 91.2502 68.8546 90.8987 69.3092 90.3439C69.7639 89.7891 69.9795 89.0764 69.9086 88.3626C69.8378 87.6488 69.4863 86.9923 68.9315 86.5377C68.3767 86.0831 67.664 85.8674 66.9502 85.9383L58.5172 86.7754Z" fill="#FFB9B9"/>
<path d="M51.1843 86.1519C51.1966 87.9873 51.9337 89.7435 53.2352 91.0378C54.5366 92.332 56.2968 93.0595 58.1323 93.0616H59.5189L60.5284 84.649L52.17 81.64L51.1843 86.1519Z" fill="#E6E6E6"/>
<path d="M342.053 0.335938H177.598V86.9538H342.053V0.335938Z" fill="#E6E6E6"/>
<path d="M182.388 82.1639H337.263V5.12585H182.388V82.1639Z" fill="white"/>
<path d="M249.447 16.3024H194.363V71.3865H249.447V16.3024Z" fill="#3F3D56"/>
<path d="M236.275 41.4495C237.157 41.4495 237.872 40.7347 237.872 39.8529C237.872 38.9711 237.157 38.2562 236.275 38.2562C235.393 38.2562 234.678 38.9711 234.678 39.8529C234.678 40.7347 235.393 41.4495 236.275 41.4495Z" fill="#6C63FF"/>
<path d="M230.288 35.8613C231.169 35.8613 231.884 35.1464 231.884 34.2646C231.884 33.3828 231.169 32.668 230.288 32.668C229.406 32.668 228.691 33.3828 228.691 34.2646C228.691 35.1464 229.406 35.8613 230.288 35.8613Z" fill="#6C63FF"/>
<path d="M229.489 39.8528C228.902 39.8529 228.326 40.0161 227.826 40.3242C227.385 39.6617 226.867 39.0539 226.283 38.5137C226.29 38.4285 226.296 38.3431 226.296 38.2562C226.297 37.6297 226.112 37.0168 225.767 36.4942C225.421 35.9715 224.93 35.5621 224.353 35.3171C223.776 35.072 223.14 35.0022 222.524 35.1162C221.908 35.2302 221.339 35.5231 220.889 35.9583C220.034 35.8369 219.166 35.8293 218.309 35.9358C218.31 35.9107 218.313 35.8864 218.313 35.8612C218.314 35.3267 218.18 34.8006 217.925 34.3311C217.669 33.8616 217.3 33.4637 216.851 33.174C216.402 32.8842 215.887 32.7118 215.354 32.6726C214.821 32.6333 214.286 32.7285 213.8 32.9494C213.313 33.1703 212.89 33.5099 212.568 33.9369C212.247 34.364 212.038 34.8649 211.96 35.3937C211.883 35.9226 211.939 36.4624 212.124 36.9638C212.309 37.4652 212.617 37.912 213.02 38.2634C212.486 38.7214 212.001 39.2343 211.574 39.7937C211.179 39.4657 210.712 39.2374 210.211 39.1282C209.71 39.019 209.19 39.0321 208.695 39.1664C208.2 39.3006 207.745 39.5521 207.368 39.8995C206.991 40.2469 206.703 40.68 206.528 41.1622C206.354 41.6444 206.298 42.1615 206.366 42.6698C206.434 43.1781 206.623 43.6626 206.917 44.0823C207.212 44.502 207.603 44.8447 208.058 45.0812C208.513 45.3177 209.019 45.4411 209.531 45.4411L209.541 45.4406C209.536 45.5733 209.531 45.7062 209.531 45.8402C209.531 46.6437 209.628 47.4442 209.82 48.2244C208.871 48.5815 208.028 49.1739 207.371 49.946C206.714 50.718 206.263 51.6444 206.062 52.6383C205.861 53.6321 205.915 54.6608 206.221 55.6277C206.526 56.5947 207.072 57.4682 207.807 58.1664C208.543 58.8645 209.443 59.3644 210.425 59.6191C211.406 59.8737 212.436 59.8748 213.418 59.6223C214.401 59.3698 215.302 58.8719 216.039 58.1753C216.776 57.4788 217.324 56.6064 217.631 55.6401C219.852 56.067 222.153 55.7258 224.155 54.6724C224.359 55.1536 224.678 55.5773 225.085 55.9062C225.491 56.2351 225.972 56.4593 226.485 56.559C226.998 56.6587 227.528 56.6309 228.028 56.478C228.528 56.3251 228.983 56.0519 229.352 55.6822C229.722 55.3125 229.995 54.8578 230.148 54.3578C230.301 53.8579 230.329 53.3281 230.229 52.8149C230.129 52.3017 229.905 51.8209 229.576 51.4145C229.247 51.0082 228.824 50.6888 228.342 50.4845C229.034 49.172 229.422 47.7213 229.479 46.2389L229.489 46.2394C230.336 46.2394 231.148 45.903 231.747 45.3041C232.346 44.7053 232.683 43.893 232.683 43.0461C232.683 42.1992 232.346 41.387 231.747 40.7881C231.148 40.1893 230.336 39.8528 229.489 39.8528V39.8528Z" fill="#6C63FF"/>
<path d="M228.691 15.1049H212.725V17.4998H228.691V15.1049Z" fill="#E6E6E6"/>
<path d="M319.7 16.3024H264.615V71.3865H319.7V16.3024Z" fill="#3F3D56"/>
<path d="M302.616 53.6638C303.012 53.6638 303.334 53.3421 303.334 52.9453C303.334 52.5485 303.012 52.2268 302.616 52.2268C302.219 52.2268 301.897 52.5485 301.897 52.9453C301.897 53.3421 302.219 53.6638 302.616 53.6638Z" fill="#6C63FF"/>
<path d="M299.921 51.1491C300.318 51.1491 300.64 50.8275 300.64 50.4306C300.64 50.0338 300.318 49.7122 299.921 49.7122C299.524 49.7122 299.203 50.0338 299.203 50.4306C299.203 50.8275 299.524 51.1491 299.921 51.1491Z" fill="#6C63FF"/>
<path d="M299.562 52.9453C299.298 52.9454 299.038 53.0188 298.813 53.1575C298.615 52.8593 298.382 52.5858 298.119 52.3427C298.122 52.3044 298.125 52.266 298.125 52.2268C298.125 51.9449 298.042 51.6691 297.887 51.4339C297.731 51.1987 297.51 51.0145 297.251 50.9042C296.991 50.794 296.705 50.7625 296.428 50.8138C296.151 50.8651 295.895 50.9969 295.692 51.1928C295.307 51.1381 294.917 51.1348 294.531 51.1826C294.531 51.1714 294.533 51.1604 294.533 51.1491C294.533 50.9086 294.473 50.6718 294.358 50.4605C294.243 50.2493 294.077 50.0702 293.875 49.9398C293.673 49.8094 293.441 49.7319 293.201 49.7142C292.961 49.6966 292.721 49.7394 292.502 49.8388C292.283 49.9382 292.092 50.091 291.947 50.2832C291.803 50.4753 291.709 50.7008 291.674 50.9387C291.639 51.1767 291.664 51.4196 291.748 51.6452C291.831 51.8709 291.97 52.072 292.151 52.2301C291.91 52.4362 291.692 52.667 291.5 52.9187C291.322 52.7711 291.112 52.6684 290.887 52.6193C290.661 52.5701 290.427 52.576 290.205 52.6364C289.982 52.6968 289.777 52.81 289.607 52.9663C289.438 53.1226 289.308 53.3175 289.23 53.5345C289.151 53.7515 289.126 53.9842 289.157 54.213C289.187 54.4417 289.272 54.6597 289.405 54.8486C289.537 55.0375 289.713 55.1916 289.918 55.2981C290.123 55.4045 290.35 55.46 290.581 55.46L290.585 55.4598C290.583 55.5195 290.581 55.5793 290.581 55.6397C290.581 56.0012 290.625 56.3614 290.711 56.7125C290.284 56.8732 289.905 57.1398 289.609 57.4872C289.313 57.8346 289.11 58.2515 289.02 58.6988C288.929 59.146 288.954 59.6089 289.091 60.044C289.228 60.4791 289.474 60.8722 289.805 61.1864C290.136 61.5006 290.541 61.7255 290.983 61.8401C291.425 61.9547 291.888 61.9552 292.33 61.8416C292.772 61.7279 293.178 61.5039 293.509 61.1904C293.841 60.877 294.088 60.4844 294.226 60.0496C295.225 60.2417 296.261 60.0881 297.161 59.6141C297.253 59.8307 297.397 60.0213 297.58 60.1693C297.763 60.3173 297.979 60.4182 298.21 60.4631C298.441 60.5079 298.679 60.4954 298.904 60.4266C299.129 60.3578 299.334 60.2349 299.5 60.0685C299.667 59.9022 299.79 59.6975 299.858 59.4726C299.927 59.2476 299.94 59.0092 299.895 58.7782C299.85 58.5473 299.749 58.3309 299.601 58.1481C299.453 57.9652 299.262 57.8215 299.046 57.7295C299.357 57.139 299.532 56.4861 299.557 55.8191L299.562 55.8193C299.943 55.8193 300.309 55.6679 300.578 55.3984C300.848 55.1289 300.999 54.7634 300.999 54.3823C300.999 54.0012 300.848 53.6357 300.578 53.3662C300.309 53.0967 299.943 52.9453 299.562 52.9453V52.9453Z" fill="#6C63FF"/>
<path d="M308.252 40.0291C308.649 40.0291 308.971 39.7075 308.971 39.3107C308.971 38.9138 308.649 38.5922 308.252 38.5922C307.856 38.5922 307.534 38.9138 307.534 39.3107C307.534 39.7075 307.856 40.0291 308.252 40.0291Z" fill="#6C63FF"/>
<path d="M309.943 36.754C310.339 36.754 310.661 36.4323 310.661 36.0355C310.661 35.6387 310.339 35.317 309.943 35.317C309.546 35.317 309.224 35.6387 309.224 36.0355C309.224 36.4323 309.546 36.754 309.943 36.754Z" fill="#6C63FF"/>
<path d="M307.425 36.3714C307.353 36.117 307.212 35.8874 307.018 35.7083C307.251 35.4367 307.451 35.1382 307.614 34.8193C307.651 34.8118 307.689 34.8041 307.727 34.7935C307.998 34.7173 308.241 34.5628 308.425 34.3494C308.61 34.136 308.727 33.873 308.763 33.5934C308.799 33.3137 308.751 33.0297 308.627 32.7768C308.502 32.5238 308.306 32.3131 308.063 32.171C308.011 31.7858 307.908 31.4091 307.758 31.0509C307.768 31.0481 307.779 31.0465 307.79 31.0434C308.022 30.9785 308.234 30.8565 308.406 30.6886C308.578 30.5207 308.705 30.3122 308.776 30.0823C308.847 29.8524 308.859 29.6085 308.811 29.3728C308.763 29.1371 308.656 28.9173 308.501 28.7334C308.346 28.5495 308.147 28.4075 307.923 28.3204C307.699 28.2332 307.456 28.2038 307.218 28.2347C306.979 28.2656 306.752 28.3559 306.558 28.4973C306.363 28.6386 306.207 28.8266 306.104 29.0439C305.841 28.8682 305.559 28.7208 305.265 28.6039C305.359 28.3932 305.401 28.1629 305.387 27.9326C305.373 27.7023 305.304 27.4786 305.185 27.2807C305.067 27.0827 304.903 26.9161 304.706 26.7952C304.51 26.6742 304.287 26.6023 304.057 26.5856C303.827 26.5689 303.596 26.6078 303.384 26.6992C303.172 26.7905 302.985 26.9315 302.839 27.1103C302.693 27.2891 302.593 27.5004 302.546 27.7263C302.499 27.9523 302.507 28.1862 302.57 28.4083L302.571 28.4126C302.513 28.4265 302.455 28.4406 302.397 28.457C302.049 28.555 301.714 28.6947 301.399 28.8729C301.129 28.5054 300.769 28.2126 300.355 28.022C299.94 27.8315 299.484 27.7494 299.029 27.7834C298.574 27.8175 298.135 27.9666 297.753 28.2168C297.372 28.467 297.06 28.81 296.847 29.2137C296.635 29.6174 296.528 30.0685 296.537 30.5247C296.547 30.9809 296.672 31.4273 296.901 31.8218C297.13 32.2164 297.456 32.5463 297.848 32.7805C298.239 33.0147 298.684 33.1456 299.14 33.1609C299.226 34.1751 299.654 35.1299 300.355 35.8684C300.171 36.0156 300.027 36.2056 299.934 36.4217C299.841 36.6379 299.802 36.8735 299.822 37.1079C299.841 37.3424 299.918 37.5685 300.045 37.7664C300.172 37.9643 300.346 38.1279 300.551 38.243C300.757 38.358 300.987 38.4209 301.222 38.4261C301.457 38.4313 301.69 38.3788 301.9 38.273C302.111 38.1672 302.291 38.0114 302.427 37.8194C302.563 37.6274 302.65 37.4049 302.68 37.1715C303.333 37.311 304.008 37.3023 304.657 37.146L304.658 37.1505C304.709 37.3322 304.796 37.5022 304.912 37.6505C305.029 37.7989 305.174 37.9228 305.339 38.0152C305.503 38.1076 305.685 38.1666 305.872 38.1889C306.06 38.2112 306.25 38.1963 306.431 38.1451C306.613 38.094 306.783 38.0075 306.931 37.8906C307.079 37.7738 307.203 37.6288 307.296 37.4641C307.388 37.2994 307.447 37.1181 307.469 36.9306C307.491 36.7431 307.476 36.5531 307.425 36.3714V36.3714Z" fill="#6C63FF"/>
<path d="M280.424 30.2656C280.821 30.2656 281.143 29.9439 281.143 29.5471C281.143 29.1503 280.821 28.8286 280.424 28.8286C280.027 28.8286 279.706 29.1503 279.706 29.5471C279.706 29.9439 280.027 30.2656 280.424 30.2656Z" fill="#6C63FF"/>
<path d="M276.751 30.5599C277.147 30.5599 277.469 30.2382 277.469 29.8414C277.469 29.4446 277.147 29.1229 276.751 29.1229C276.354 29.1229 276.032 29.4446 276.032 29.8414C276.032 30.2382 276.354 30.5599 276.751 30.5599Z" fill="#6C63FF"/>
<path d="M278.366 31.8023C278.187 31.9975 278.067 32.2385 278.017 32.4982C277.664 32.4436 277.304 32.4313 276.948 32.4615C276.921 32.4334 276.895 32.4055 276.866 32.3791C276.658 32.1888 276.398 32.0641 276.12 32.0203C275.841 31.9765 275.556 32.0158 275.3 32.133C275.043 32.2503 274.827 32.4405 274.678 32.6798C274.529 32.9192 274.454 33.1971 274.462 33.4789C274.162 33.7263 273.896 34.0123 273.672 34.3294C273.663 34.3216 273.656 34.3132 273.648 34.3055C273.471 34.1431 273.255 34.0279 273.022 33.9703C272.788 33.9128 272.544 33.9148 272.311 33.9761C272.079 34.0374 271.865 34.1562 271.69 34.3214C271.516 34.4867 271.385 34.6932 271.311 34.9219C271.237 35.1507 271.221 35.3945 271.265 35.6309C271.31 35.8672 271.413 36.0887 271.565 36.2749C271.717 36.4612 271.914 36.6062 272.137 36.6968C272.36 36.7873 272.602 36.8205 272.84 36.7933C272.83 37.1099 272.854 37.4267 272.91 37.7384C272.682 37.7699 272.464 37.8559 272.276 37.9893C272.087 38.1227 271.934 38.2994 271.828 38.5046C271.723 38.7098 271.668 38.9374 271.669 39.1682C271.67 39.3989 271.727 39.626 271.834 39.8303C271.942 40.0345 272.097 40.2099 272.286 40.3416C272.475 40.4733 272.694 40.5575 272.923 40.5869C273.152 40.6164 273.384 40.5903 273.601 40.5108C273.817 40.4314 274.012 40.3009 274.167 40.1305L274.17 40.127C274.213 40.169 274.255 40.2109 274.3 40.2516C274.567 40.4953 274.862 40.706 275.18 40.879C275.011 41.3027 274.952 41.7625 275.009 42.2152C275.066 42.668 275.237 43.0987 275.507 43.4671C275.776 43.8355 276.134 44.1295 276.548 44.3214C276.962 44.5134 277.418 44.597 277.873 44.5644C278.328 44.5318 278.768 44.3841 279.15 44.1352C279.533 43.8863 279.846 43.5443 280.06 43.1413C280.274 42.7383 280.382 42.2876 280.374 41.8313C280.366 41.3751 280.242 40.9284 280.014 40.533C280.83 39.9244 281.415 39.0563 281.672 38.0715C281.894 38.1496 282.132 38.172 282.364 38.1368C282.597 38.1015 282.817 38.0097 283.006 37.8694C283.195 37.7291 283.346 37.5446 283.447 37.3321C283.548 37.1195 283.595 36.8855 283.585 36.6505C283.574 36.4155 283.506 36.1867 283.386 35.9842C283.266 35.7817 283.098 35.6117 282.898 35.4892C282.697 35.3666 282.469 35.2952 282.234 35.2812C281.999 35.2673 281.765 35.3112 281.551 35.4091C281.324 34.7811 280.96 34.2118 280.485 33.7432L280.488 33.74C280.616 33.6007 280.714 33.4376 280.779 33.26C280.843 33.0825 280.872 32.894 280.864 32.7053C280.855 32.5166 280.81 32.3315 280.73 32.1604C280.649 31.9893 280.536 31.8357 280.397 31.7084C280.257 31.581 280.094 31.4824 279.917 31.4182C279.739 31.354 279.55 31.3255 279.362 31.3342C279.173 31.3429 278.988 31.3887 278.817 31.469C278.646 31.5494 278.493 31.6626 278.366 31.8023Z" fill="#6C63FF"/>
<path d="M298.943 15.1049H282.977V17.4998H298.943V15.1049Z" fill="#E6E6E6"/>
<path d="M163.573 204.005C169.329 211.713 181.277 212.524 181.277 212.524C181.277 212.524 183.893 200.838 178.137 193.13C172.381 185.422 160.433 184.61 160.433 184.61C160.433 184.61 157.817 196.296 163.573 204.005Z" fill="#3E6ED6"/>
<path d="M192.894 206.903C189.096 211.989 181.212 212.525 181.212 212.525C181.212 212.525 179.486 204.813 183.284 199.727C187.082 194.64 194.966 194.105 194.966 194.105C194.966 194.105 196.692 201.816 192.894 206.903Z" fill="#776FFB"/>
<g filter="url(#filter0_f_0_1240)">
<path d="M208.334 230.34H105.351V230.784H208.334V230.34Z" fill="#3F3D56"/>
</g>
</g>
<defs>
<filter id="filter0_f_0_1240" x="101.351" y="226.34" width="110.983" height="8.44409" filterUnits="userSpaceOnUse" color-interpolation-filters="sRGB">
<feFlood flood-opacity="0" result="BackgroundImageFix"/>
<feBlend mode="normal" in="SourceGraphic" in2="BackgroundImageFix" result="shape"/>
<feGaussianBlur stdDeviation="2" result="effect1_foregroundBlur_0_1240"/>
</filter>
<clipPath id="clip0_0_1240">
<rect width="341.105" height="230.674" fill="white" transform="translate(0.947266 0.335938)"/>
</clipPath>
</defs>
</svg>
