<svg width="40" height="40" viewBox="0 0 40 40" fill="none" xmlns="http://www.w3.org/2000/svg">
<path d="M38.4307 32.6432C37.4273 30.3979 35.9712 28.3583 34.1435 26.6382C32.3214 24.9131 30.1629 23.5377 27.7872 22.5879C27.7659 22.5779 27.7446 22.5729 27.7234 22.5628C31.0372 20.3015 33.1914 16.6181 33.1914 12.4623C33.1914 5.57789 27.2872 0 20 0C12.7128 0 6.8086 5.57789 6.8086 12.4623C6.8086 16.6181 8.96284 20.3015 12.2766 22.5678C12.2554 22.5779 12.2341 22.5829 12.2128 22.593C9.82986 23.5427 7.69157 24.9045 5.85648 26.6432C4.03048 28.3647 2.57461 30.4039 1.56927 32.6482C0.58163 34.8455 0.0489727 37.2012 0.00013301 39.5879C-0.00128669 39.6416 0.00867084 39.6949 0.0294191 39.7449C0.0501674 39.7948 0.0812866 39.8403 0.120943 39.8787C0.160599 39.9171 0.20799 39.9476 0.260324 39.9685C0.312657 39.9893 0.368874 40 0.425662 40H3.61713C3.85117 40 4.03734 39.8241 4.04266 39.608C4.14904 35.7286 5.79797 32.0955 8.71284 29.3417C11.7288 26.4925 15.7341 24.9246 20 24.9246C24.2659 24.9246 28.2712 26.4925 31.2872 29.3417C34.202 32.0955 35.851 35.7286 35.9573 39.608C35.9627 39.8291 36.1488 40 36.3829 40H39.5743C39.6311 40 39.6873 39.9893 39.7397 39.9685C39.792 39.9476 39.8394 39.9171 39.8791 39.8787C39.9187 39.8403 39.9498 39.7948 39.9706 39.7449C39.9913 39.6949 40.0013 39.6416 39.9999 39.5879C39.9467 37.1859 39.4201 34.8492 38.4307 32.6432ZM20 21.1055C17.5585 21.1055 15.2607 20.206 13.532 18.5729C11.8032 16.9397 10.8511 14.7688 10.8511 12.4623C10.8511 10.1558 11.8032 7.98492 13.532 6.35176C15.2607 4.71859 17.5585 3.8191 20 3.8191C22.4415 3.8191 24.7393 4.71859 26.468 6.35176C28.1968 7.98492 29.1489 10.1558 29.1489 12.4623C29.1489 14.7688 28.1968 16.9397 26.468 18.5729C24.7393 20.206 22.4415 21.1055 20 21.1055Z" fill="white"/>
</svg>
