<svg width="19" height="16" viewBox="0 0 19 16" fill="none" xmlns="http://www.w3.org/2000/svg">
<path d="M19 4.40402V12.791C19 14.241 17.825 15.416 16.375 15.416H2.625C1.92881 15.416 1.26113 15.1395 0.768845 14.6472C0.276562 14.1549 0 13.4872 0 12.791V4.40402L9.199 9.46402C9.3865 9.56702 9.614 9.56702 9.801 9.46402L19 4.40352V4.40402ZM16.375 0.416016C17.0602 0.416079 17.7183 0.684092 18.2086 1.1628C18.6989 1.64152 18.9826 2.29297 18.999 2.97802L9.5 8.20302L0.000999928 2.97752L0.00200009 2.93252C0.0300014 2.25564 0.318603 1.61581 0.807455 1.1468C1.29631 0.677801 1.94755 0.415953 2.625 0.416016H16.375Z" fill="white"/>
</svg>
