<svg width="14" height="15" viewBox="0 0 14 15" fill="none" xmlns="http://www.w3.org/2000/svg">
<path d="M13.993 10.9879C13.869 11.9346 13.4054 12.804 12.6885 13.4346C11.9715 14.0652 11.05 14.4139 10.0952 14.416C4.52881 14.416 0 9.88721 0 4.32084C0.00210481 3.36604 0.350859 2.4445 0.981421 1.72754C1.61198 1.01058 2.48145 0.546996 3.42815 0.422977C3.66949 0.396218 3.91307 0.447029 4.12358 0.568041C4.33409 0.689053 4.50059 0.873975 4.59891 1.09599L6.00803 4.38393C6.08113 4.5546 6.11043 4.74082 6.09329 4.92568C6.07615 5.11055 6.01311 5.28821 5.90988 5.44252L4.74614 7.2232C5.27311 8.29265 6.14141 9.15602 7.21384 9.67689L8.97349 8.50613C9.12765 8.40221 9.30575 8.33931 9.49097 8.32337C9.6762 8.30742 9.86243 8.33896 10.0321 8.41499L13.32 9.8171C13.542 9.91543 13.727 10.0819 13.848 10.2924C13.969 10.5029 14.0198 10.7465 13.993 10.9879ZM8.79122 2.05643C9.6449 2.28966 10.423 2.74145 11.0488 3.36722C11.6746 3.99299 12.1264 4.77111 12.3596 5.6248C12.3905 5.74465 12.4603 5.8509 12.5579 5.92699C12.6555 6.00307 12.7756 6.04472 12.8994 6.04543C12.9492 6.04534 12.9988 6.03826 13.0466 6.0244C13.1179 6.00574 13.1848 5.97305 13.2433 5.92823C13.3018 5.88341 13.3507 5.82737 13.3873 5.76338C13.4238 5.6994 13.4473 5.62876 13.4562 5.55561C13.4651 5.48245 13.4593 5.40826 13.4392 5.33737C13.1588 4.29187 12.6083 3.33856 11.8429 2.57316C11.0775 1.80776 10.1241 1.25721 9.07865 0.97681C9.00549 0.950158 8.92759 0.93903 8.84989 0.944137C8.7722 0.949243 8.69642 0.97047 8.62738 1.00647C8.55834 1.04246 8.49755 1.09244 8.44888 1.15322C8.40022 1.214 8.36474 1.28424 8.34471 1.35948C8.32468 1.43472 8.32053 1.51331 8.33253 1.59024C8.34454 1.66717 8.37243 1.74076 8.41443 1.80632C8.45643 1.87188 8.51163 1.92798 8.5765 1.97104C8.64137 2.0141 8.71449 2.04318 8.79122 2.05643ZM8.20934 4.22269C8.68387 4.35259 9.11638 4.60385 9.46427 4.95174C9.81216 5.29963 10.0634 5.73214 10.1933 6.20667C10.2232 6.32713 10.2926 6.43407 10.3905 6.51034C10.4884 6.58662 10.609 6.62781 10.7331 6.62731C10.7807 6.62777 10.828 6.62067 10.8733 6.60627C10.9453 6.58839 11.0129 6.55625 11.0722 6.51176C11.1314 6.46727 11.1812 6.41133 11.2184 6.34726C11.2557 6.28319 11.2797 6.2123 11.2891 6.13878C11.2985 6.06526 11.293 5.9906 11.2729 5.91924C11.0959 5.2529 10.7459 4.64518 10.2584 4.15765C9.77083 3.67013 9.16312 3.32011 8.49677 3.14307C8.42362 3.11641 8.34571 3.10529 8.26802 3.11039C8.19032 3.1155 8.11454 3.13673 8.0455 3.17272C7.97646 3.20872 7.91567 3.2587 7.86701 3.31948C7.81834 3.38025 7.78286 3.4505 7.76283 3.52574C7.7428 3.60098 7.73865 3.67957 7.75066 3.7565C7.76266 3.83343 7.79055 3.90702 7.83256 3.97258C7.87456 4.03814 7.92975 4.09423 7.99462 4.13729C8.05949 4.18036 8.13262 4.20944 8.20934 4.22269Z" fill="white"/>
</svg>
