<svg width="196" height="61" viewBox="0 0 196 61" fill="none" xmlns="http://www.w3.org/2000/svg">
<rect y="0.416016" width="196" height="60" rx="3" fill="white"/>
<path d="M72.9826 18.3919C72.9826 19.3557 72.742 20.1991 72.1407 20.8015C71.419 21.5244 70.5771 21.8858 69.4946 21.8858C68.4121 21.8858 67.5702 21.5244 66.8486 20.8015C66.1269 20.0786 65.7661 19.2352 65.7661 18.1509C65.7661 17.0666 66.1269 16.2232 66.8486 15.5003C67.5702 14.7775 68.4121 14.416 69.4946 14.416C69.9757 14.416 70.4568 14.5365 70.9379 14.7775C71.419 15.0184 71.7798 15.2594 72.0204 15.6208L71.419 16.2232C70.9379 15.6208 70.3365 15.3799 69.4946 15.3799C68.773 15.3799 68.0513 15.6208 67.5702 16.2232C66.9689 16.7051 66.7283 17.428 66.7283 18.2714C66.7283 19.1147 66.9689 19.8376 67.5702 20.3195C68.1716 20.8015 68.773 21.1629 69.4946 21.1629C70.3365 21.1629 70.9379 20.922 71.5393 20.3195C71.9001 19.9581 72.1407 19.4762 72.1407 18.8738H69.4946V17.9099H72.9826V18.3919ZM78.5152 15.3799H75.2678V17.669H78.2746V18.5123H75.2678V20.8015H78.5152V21.7653H74.3056V14.5365H78.5152V15.3799ZM82.4842 21.7653H81.522V15.3799H79.4774V14.5365H84.5289V15.3799H82.4842V21.7653ZM88.0169 21.7653V14.5365H88.9791V21.7653H88.0169ZM93.0684 21.7653H92.1062V15.3799H90.0615V14.5365H94.9928V15.3799H92.9481V21.7653H93.0684ZM104.494 20.8015C103.773 21.5244 102.931 21.8858 101.848 21.8858C100.766 21.8858 99.924 21.5244 99.2024 20.8015C98.4807 20.0786 98.1199 19.2352 98.1199 18.1509C98.1199 17.0666 98.4807 16.2232 99.2024 15.5003C99.924 14.7775 100.766 14.416 101.848 14.416C102.931 14.416 103.773 14.7775 104.494 15.5003C105.216 16.2232 105.577 17.0666 105.577 18.1509C105.577 19.2352 105.216 20.0786 104.494 20.8015ZM99.924 20.1991C100.405 20.681 101.127 21.0424 101.848 21.0424C102.57 21.0424 103.292 20.8015 103.773 20.1991C104.254 19.7171 104.615 18.9943 104.615 18.1509C104.615 17.3075 104.374 16.5847 103.773 16.1027C103.292 15.6208 102.57 15.2594 101.848 15.2594C101.127 15.2594 100.405 15.5003 99.924 16.1027C99.4429 16.5847 99.0821 17.3075 99.0821 18.1509C99.0821 18.9943 99.3227 19.7171 99.924 20.1991ZM106.9 21.7653V14.5365H107.982L111.47 20.1991V14.5365H112.433V21.7653H111.47L107.742 15.8618V21.7653H106.9Z" fill="black" stroke="black" stroke-width="0.2" stroke-miterlimit="10"/>
<path d="M97.8793 32.3681C94.9928 32.3681 92.7075 34.5368 92.7075 37.5488C92.7075 40.4403 94.9928 42.7294 97.8793 42.7294C100.766 42.7294 103.051 40.5608 103.051 37.5488C103.051 34.4163 100.766 32.3681 97.8793 32.3681ZM97.8793 40.5608C96.3158 40.5608 94.9928 39.2355 94.9928 37.4283C94.9928 35.6211 96.3158 34.2958 97.8793 34.2958C99.4429 34.2958 100.766 35.5006 100.766 37.4283C100.766 39.2355 99.4429 40.5608 97.8793 40.5608ZM86.6938 32.3681C83.8072 32.3681 81.522 34.5368 81.522 37.5488C81.522 40.4403 83.8072 42.7294 86.6938 42.7294C89.5804 42.7294 91.8656 40.5608 91.8656 37.5488C91.8656 34.4163 89.5804 32.3681 86.6938 32.3681ZM86.6938 40.5608C85.1303 40.5608 83.8072 39.2355 83.8072 37.4283C83.8072 35.6211 85.1303 34.2958 86.6938 34.2958C88.2574 34.2958 89.5804 35.5006 89.5804 37.4283C89.5804 39.2355 88.2574 40.5608 86.6938 40.5608ZM73.3434 33.9344V36.103H78.5152C78.3949 37.3078 77.9138 38.2717 77.3124 38.8741C76.5908 39.597 75.388 40.4403 73.3434 40.4403C70.096 40.4403 67.6905 37.9102 67.6905 34.6573C67.6905 31.4043 70.2162 28.8742 73.3434 28.8742C75.0272 28.8742 76.3502 29.5971 77.3124 30.4405L78.876 28.8742C77.553 27.6694 75.8691 26.7056 73.4637 26.7056C69.1338 26.7056 65.4053 30.32 65.4053 34.6573C65.4053 38.9946 69.1338 42.609 73.4637 42.609C75.8691 42.609 77.553 41.8861 78.9963 40.3198C80.4396 38.8741 80.9207 36.8259 80.9207 35.2597C80.9207 34.7777 80.9207 34.2958 80.8004 33.9344H73.3434ZM127.948 35.6211C127.467 34.4163 126.264 32.3681 123.618 32.3681C120.972 32.3681 118.807 34.4163 118.807 37.5488C118.807 40.4403 120.972 42.7294 123.859 42.7294C126.144 42.7294 127.587 41.2837 128.068 40.4403L126.384 39.2355C125.783 40.0789 125.061 40.6813 123.859 40.6813C122.656 40.6813 121.934 40.1994 121.333 39.115L128.188 36.2235L127.948 35.6211ZM120.972 37.3078C120.972 35.3801 122.536 34.2958 123.618 34.2958C124.46 34.2958 125.302 34.7777 125.542 35.3801L120.972 37.3078ZM115.319 42.2475H117.604V27.1875H115.319V42.2475ZM111.711 33.4525C111.11 32.8501 110.147 32.2477 108.945 32.2477C106.419 32.2477 104.013 34.5368 104.013 37.4283C104.013 40.3198 106.299 42.4885 108.945 42.4885C110.147 42.4885 111.11 41.8861 111.591 41.2837H111.711V42.0066C111.711 43.9342 110.628 45.0186 108.945 45.0186C107.622 45.0186 106.659 44.0547 106.419 43.2114L104.494 44.0547C105.096 45.38 106.539 47.0667 109.065 47.0667C111.711 47.0667 113.876 45.5005 113.876 41.7656V32.6091H111.711V33.4525ZM109.065 40.5608C107.501 40.5608 106.178 39.2355 106.178 37.4283C106.178 35.6211 107.501 34.2958 109.065 34.2958C110.628 34.2958 111.831 35.6211 111.831 37.4283C111.831 39.2355 110.628 40.5608 109.065 40.5608ZM138.412 27.1875H132.999V42.2475H135.285V36.5849H138.412C140.938 36.5849 143.343 34.7777 143.343 31.8862C143.343 28.9947 140.938 27.1875 138.412 27.1875ZM138.532 34.4163H135.285V29.2357H138.532C140.216 29.2357 141.178 30.6814 141.178 31.7657C141.058 33.091 140.096 34.4163 138.532 34.4163ZM152.364 32.2477C150.68 32.2477 148.996 32.9705 148.395 34.5368L150.439 35.3801C150.92 34.5368 151.642 34.2958 152.484 34.2958C153.687 34.2958 154.769 35.0187 154.889 36.2235V36.344C154.529 36.103 153.566 35.7416 152.604 35.7416C150.439 35.7416 148.274 36.9464 148.274 39.115C148.274 41.1632 150.078 42.4885 152.003 42.4885C153.566 42.4885 154.288 41.7656 154.889 41.0427H155.01V42.2475H157.175V36.4645C156.934 33.8139 154.889 32.2477 152.364 32.2477ZM152.123 40.5608C151.401 40.5608 150.319 40.1994 150.319 39.2355C150.319 38.0307 151.642 37.6693 152.724 37.6693C153.687 37.6693 154.168 37.9102 154.769 38.1512C154.529 39.597 153.326 40.5608 152.123 40.5608ZM164.752 32.6091L162.226 39.115H162.106L159.46 32.6091H157.054L161.023 41.7656L158.738 46.8258H161.023L167.157 32.6091H164.752ZM144.546 42.2475H146.831V27.1875H144.546V42.2475Z" fill="black"/>
<path d="M28.4811 15.1392C28.1203 15.5006 28 16.103 28 16.8259V43.452C28 44.1749 28.2405 44.7773 28.6014 45.1388L28.7216 45.2592L43.6357 30.3197V30.0787L28.4811 15.1392Z" fill="url(#paint0_linear_624_2774)"/>
<path d="M48.4461 35.3795L43.5149 30.4398V30.0784L48.4461 25.1387L48.5664 25.2592L54.4599 28.6326C56.1437 29.5964 56.1437 31.1627 54.4599 32.1265L48.4461 35.3795Z" fill="url(#paint1_linear_624_2774)"/>
<path d="M48.5675 35.2594L43.516 30.1992L28.4817 45.2593C29.0831 45.8617 29.925 45.8617 31.0075 45.3797L48.5675 35.2594Z" fill="url(#paint2_linear_624_2774)"/>
<path d="M48.5675 25.1396L31.0075 15.1397C29.925 14.5373 29.0831 14.6578 28.4817 15.2602L43.516 30.1997L48.5675 25.1396Z" fill="url(#paint3_linear_624_2774)"/>
<path opacity="0.2" d="M48.4472 35.1392L31.0075 45.0185C30.0453 45.6209 29.2033 45.5005 28.602 45.0185L28.4817 45.139L28.602 45.2595C29.2033 45.7414 30.0453 45.8619 31.0075 45.2595L48.4472 35.1392Z" fill="black"/>
<path opacity="0.12" d="M28.4811 45.0183C28.1203 44.6568 28 44.0544 28 43.3316V43.452C28 44.1749 28.2405 44.7773 28.6014 45.1388V45.0183H28.4811ZM54.4603 31.7655L48.4466 35.1389L48.5669 35.2594L54.4603 31.8859C55.3023 31.404 55.6631 30.8016 55.6631 30.1992C55.6631 30.8016 55.182 31.2835 54.4603 31.7655Z" fill="black"/>
<path opacity="0.25" d="M31.0069 15.2594L54.4603 28.6327C55.182 29.1146 55.6631 29.5966 55.6631 30.199C55.6631 29.5966 55.3023 28.9942 54.4603 28.5122L31.0069 15.1389C29.323 14.1751 28 14.898 28 16.8257V16.9461C28 15.1389 29.323 14.2956 31.0069 15.2594Z" fill="black"/>
<defs>
<linearGradient id="paint0_linear_624_2774" x1="42.1924" y1="16.597" x2="21.9722" y2="36.7814" gradientUnits="userSpaceOnUse">
<stop stop-color="#00A0FF"/>
<stop offset="0.007" stop-color="#00A1FF"/>
<stop offset="0.26" stop-color="#00BEFF"/>
<stop offset="0.512" stop-color="#00D2FF"/>
<stop offset="0.76" stop-color="#00DFFF"/>
<stop offset="1" stop-color="#00E3FF"/>
</linearGradient>
<linearGradient id="paint1_linear_624_2774" x1="56.6657" y1="30.2" x2="27.5629" y2="30.2" gradientUnits="userSpaceOnUse">
<stop stop-color="#FFE000"/>
<stop offset="0.409" stop-color="#FFBD00"/>
<stop offset="0.775" stop-color="#FFA500"/>
<stop offset="1" stop-color="#FF9C00"/>
</linearGradient>
<linearGradient id="paint2_linear_624_2774" x1="45.8337" y1="32.9654" x2="18.4148" y2="60.3374" gradientUnits="userSpaceOnUse">
<stop stop-color="#FF3A44"/>
<stop offset="1" stop-color="#C31162"/>
</linearGradient>
<linearGradient id="paint3_linear_624_2774" x1="24.7496" y1="6.31573" x2="36.994" y2="18.5392" gradientUnits="userSpaceOnUse">
<stop stop-color="#32A071"/>
<stop offset="0.069" stop-color="#2DA771"/>
<stop offset="0.476" stop-color="#15CF74"/>
<stop offset="0.801" stop-color="#06E775"/>
<stop offset="1" stop-color="#00F076"/>
</linearGradient>
</defs>
</svg>
